<svg width="14" height="14" viewBox="0 0 14 14" fill="none" xmlns="http://www.w3.org/2000/svg">
<path d="M13.7265 6.60295C13.7265 6.41816 13.6526 6.24815 13.5048 6.10771L8.60402 1.22175C8.44136 1.05913 8.28619 1 8.10877 1C7.74658 1 7.46568 1.2661 7.46568 1.63569C7.46568 1.81309 7.52482 1.98311 7.64311 2.10137L9.29887 3.78669L12.2334 6.46251L12.3812 6.09293L10.0011 5.94509H0.650475C0.266103 5.94509 0 6.21858 0 6.60295C0 6.98733 0.266103 7.26082 0.650475 7.26082H10.0011L12.3812 7.11299L12.2334 6.75079L9.29887 9.41918L7.64311 11.1045C7.52482 11.2154 7.46568 11.3928 7.46568 11.5702C7.46568 11.9398 7.74658 12.2059 8.10877 12.2059C8.28619 12.2059 8.44136 12.1394 8.58926 11.9989L13.5048 7.0982C13.6526 6.95776 13.7265 6.78775 13.7265 6.60295Z" fill="#A78BFA" fill-opacity="0.85"/>
</svg>
