<svg width="15" height="15" viewBox="0 0 15 15" fill="none" xmlns="http://www.w3.org/2000/svg">
<path d="M15 7.99973C15 7.79779 14.9192 7.61201 14.7577 7.45854L9.40227 2.11928C9.22452 1.94157 9.05496 1.87695 8.86108 1.87695C8.46528 1.87695 8.15832 2.16774 8.15832 2.57162C8.15832 2.76548 8.22295 2.95127 8.35221 3.0805L10.1616 4.92218L13.3684 7.84626L13.5299 7.44239L10.929 7.28083H0.710824C0.290791 7.28083 0 7.5797 0 7.99973C0 8.41977 0.290791 8.71863 0.710824 8.71863H10.929L13.5299 8.55709L13.3684 8.16128L10.1616 11.0772L8.35221 12.9189C8.22295 13.0401 8.15832 13.234 8.15832 13.4278C8.15832 13.8317 8.46528 14.1225 8.86108 14.1225C9.05496 14.1225 9.22452 14.0498 9.38614 13.8963L14.7577 8.54092C14.9192 8.38745 15 8.20167 15 7.99973Z" fill="black" fill-opacity="0.85"/>
</svg>
