<svg width="800" height="450" viewBox="0 0 800 450" fill="none" xmlns="http://www.w3.org/2000/svg">
<rect width="800" height="450" fill="black"/>
<g clip-path="url(#clip0_2902_9)">
<path d="M650 162.5V287.5H150V162.5H650Z" fill="black"/>
<path d="M630.481 231.34C630.481 231.34 630.384 231.549 630.046 231.549H603.08C602.645 231.549 602.435 231.758 602.435 231.758C602.435 231.758 602.113 231.871 602.113 232.402V261.141C602.113 261.576 601.904 261.672 601.904 261.672C601.904 261.672 601.791 261.898 601.468 261.898H580.031C579.725 261.898 579.499 261.672 579.499 261.672C579.499 261.672 579.387 261.576 579.387 261.045V232.289C579.387 231.983 579.129 231.758 579.129 231.758C579.129 231.758 578.967 231.549 578.693 231.549H551.019C550.487 231.549 550.39 231.436 550.39 231.436C550.39 231.436 550.181 231.227 550.181 230.583V209.552C550.181 209.294 550.39 209.021 550.39 209.021C550.39 209.021 550.487 208.924 550.712 208.924H578.968C579.193 208.924 579.193 208.811 579.193 208.811C579.193 208.811 579.387 208.699 579.387 208.49V183.306C579.387 183 579.499 182.775 579.499 182.775C579.499 182.775 579.725 182.662 580.354 182.662H601.372C601.791 182.662 601.904 182.775 601.904 182.775C601.904 182.775 602.113 183 602.113 183.419V208.699H629.578C630.271 208.699 630.481 208.811 630.481 208.811C630.481 208.811 630.803 208.924 630.803 209.552V230.809C630.803 231.018 630.481 231.34 630.481 231.34ZM546.812 260.948C546.715 261.576 546.602 261.785 546.602 261.785C546.602 261.785 546.489 262.01 545.958 262.01H502.487C501.23 262.01 500.891 261.672 500.891 261.672C500.891 261.672 500.682 261.254 500.779 260.305L511.562 185.495C511.674 184.593 511.884 184.272 511.884 184.272C511.884 184.272 511.997 184.272 512.996 184.272H532.789C533.321 184.272 533.482 184.368 533.482 184.368C533.482 184.368 533.595 184.706 533.482 185.124L525.375 243.585C525.262 244.213 525.584 244.277 525.584 244.277C525.584 244.277 525.794 244.39 526.664 244.39H548.15C548.617 244.39 548.778 244.583 548.778 244.583C548.778 244.583 548.891 244.696 548.891 245.227L546.812 260.948ZM491.414 262.107H472.104C471.685 262.316 471.347 261.898 471.347 261.898C471.347 261.898 471.25 261.785 471.137 261.141L468.575 249.217C468.365 248.638 468.155 248.316 468.155 248.316C468.155 248.316 467.624 247.995 466.979 247.995H441.867C441.383 247.995 441.061 248.316 441.061 248.316C441.061 248.316 440.642 248.686 440.416 249.33L434.71 261.479C434.614 261.785 434.404 261.898 434.404 261.898C434.404 261.898 433.969 262.01 433.759 262.01H412C411.468 262.107 411.307 261.785 411.307 261.785C411.307 261.785 411.21 261.576 411.468 261.141L449.813 184.803C450.023 184.706 450.232 184.368 450.232 184.368C450.232 184.368 450.458 184.272 451.086 184.272H474.828C475.36 184.272 475.667 184.593 475.667 184.593C475.667 184.593 475.779 184.706 475.892 185.012L491.833 261.672C491.833 261.898 491.72 262.01 491.72 262.01C491.72 262.01 491.72 262.107 491.414 262.107ZM400.911 262.01H381.601C381.279 262.01 380.973 262.01 380.973 262.01C380.973 262.01 380.908 261.898 380.795 261.785L353.975 214.299C353.765 214.089 353.669 214.089 353.669 214.089C353.669 214.089 353.443 214.089 353.443 214.395L346.786 261.045C346.673 261.576 346.56 261.672 346.56 261.672C346.56 261.672 346.351 261.785 346.029 261.785H326.832C326.526 261.785 326.3 261.576 326.3 261.576C326.3 261.576 325.881 261.141 326.042 260.723L336.535 185.237C336.648 184.803 336.873 184.706 336.873 184.706C336.873 184.706 337.18 184.368 337.502 184.368H358.939C359.262 184.368 359.471 184.593 359.471 184.593C359.471 184.593 359.681 184.706 359.793 185.012L383.954 227.349C384.374 228.186 384.696 228.089 384.696 228.089C384.696 228.089 385.018 228.089 385.228 227.124L391.32 185.012C391.32 184.706 391.514 184.593 391.514 184.593C391.514 184.593 391.627 184.368 391.949 184.368L412.097 184.593C412.532 184.593 412.645 184.706 412.645 184.706C412.645 184.706 412.741 184.803 412.741 185.012L401.862 261.141C401.749 261.576 401.555 261.898 401.555 261.898C401.555 261.898 401.443 262.01 400.911 262.01ZM316.484 261.785L297.723 261.898C297.287 261.898 296.981 261.672 296.981 261.672C296.981 261.672 296.868 261.576 296.755 260.836L293.822 248.686C293.822 248.429 293.629 248.316 293.629 248.316C293.629 248.316 293.516 248.316 293.29 248.316H266.792C266.26 248.316 265.938 248.686 265.938 248.686C265.938 248.686 265.519 249.008 265.196 249.749L259.909 261.045C259.7 261.479 259.587 261.576 259.587 261.576C259.587 261.576 259.281 261.785 259.007 261.785H237.151C236.506 261.898 236.393 261.576 236.393 261.576C236.393 261.576 236.28 261.254 236.506 260.836L274.416 184.803C274.577 184.368 274.899 184.272 274.899 184.272C274.899 184.272 275.109 184.272 275.641 184.272H299.802C300.237 184.272 300.543 184.593 300.543 184.593C300.543 184.593 300.656 184.706 300.769 185.012L317.016 261.254C317.016 261.576 316.823 261.672 316.823 261.672C316.823 261.672 316.71 261.785 316.484 261.785ZM459.629 206.269C459.629 206.269 459.516 206.269 459.403 206.687L448.862 230.487C448.636 231.227 448.749 231.34 448.749 231.34C448.749 231.34 449.056 231.549 449.281 231.549L464.9 231.436C465.012 231.436 465.109 231.436 465.109 231.436C465.109 231.436 465.222 231.34 465.109 231.018L459.839 206.575C459.742 206.269 459.629 206.269 459.629 206.269ZM284.441 206.575C284.441 206.575 284.344 206.575 284.232 206.8L273.674 230.696C273.465 231.018 273.562 231.227 273.562 231.227C273.562 231.227 273.674 231.34 274.206 231.34L289.712 231.436C289.825 231.436 289.873 231.34 289.873 231.34C289.873 231.34 289.986 231.227 289.873 230.905L284.538 206.8C284.538 206.575 284.441 206.575 284.441 206.575ZM230.381 259.13C230.268 259.967 229.849 260.61 229.849 260.61C229.849 260.61 229.398 261.045 228.721 261.254C218.534 265.357 207.268 263.974 207.268 263.974C188.99 262.01 177.417 250.811 173.678 236.392C168.181 214.781 179.077 199.446 181.737 196.147C188.135 188.471 198.161 183 208.025 181.713C220.565 179.959 229.849 182.888 233.685 184.175C233.685 184.175 237.892 185.495 241.035 187.635C242.631 188.697 242.856 189.115 242.856 189.115C242.856 189.115 242.953 189.34 242.518 190.982L239.552 206.462C239.439 207.106 239.053 207.427 239.053 207.427C239.053 207.427 238.843 207.54 237.344 206.575C227.867 199.864 216.777 200.669 216.777 200.669C208.348 201.2 198.483 205.625 195.55 216.793C192.939 226.705 195.663 235.009 201.562 239.949C205.575 243.473 211.813 245.227 218.373 244.921C225.513 244.39 231.219 241.558 230.8 241.767C230.8 241.767 231.106 241.654 231.445 241.558C232.928 240.818 233.25 240.914 233.25 240.914C233.25 240.914 233.572 241.236 233.347 242.202L230.381 259.13Z" fill="white"/>
</g>
<defs>
<clipPath id="clip0_2902_9">
<rect width="500" height="125" fill="white" transform="translate(150 162.5)"/>
</clipPath>
</defs>
</svg>
