<svg width="100" height="100" viewBox="0 0 100 100" fill="none" xmlns="http://www.w3.org/2000/svg">
<g clip-path="url(#clip0_2857_106)">
<path d="M34.376 62.6741L31.9045 65.3321C31.7495 65.4998 31.7325 65.5566 31.8157 65.6343C31.9036 65.7163 31.955 65.7002 32.1171 65.5299L34.5891 62.8715L35.0952 63.3423L32.728 65.8877L32.596 66.03C32.5221 66.1085 32.4432 66.1726 32.3629 66.2265C32.0721 66.4324 31.7249 66.3844 31.4001 66.0818C31.1891 65.8856 31.08 65.6568 31.0873 65.4429C31.0931 65.3384 31.128 65.2323 31.1853 65.1313C31.2346 65.0485 31.2936 64.9648 31.3662 64.8872L31.4986 64.7432L33.8657 62.1982L34.376 62.6741Z" fill="#798086"/>
<path d="M36.826 64.9688L37.4441 65.3589L36.5565 67.4887L37.771 65.5656L38.3046 65.9027L35.9146 69.6865L35.3024 69.2997L36.1858 67.1763L34.9751 69.0934L34.4355 68.7525L36.826 64.9688Z" fill="#798086"/>
<path d="M40.4307 67.1475L41.0369 67.4663L38.9546 71.4296L38.3467 71.1083L40.4307 67.1475Z" fill="#798086"/>
<path d="M42.9198 68.2773L43.5752 68.4493L43.1108 71.2762L44.0533 68.5741L44.7087 68.746L43.0917 72.9496L42.2881 72.7386L42.9198 68.2773Z" fill="#798086"/>
<path d="M47.0372 68.8066L48.3328 68.8127L48.332 69.4235L47.7211 69.4211L47.7143 70.71L48.3257 70.7124L48.3218 71.3156L47.7101 71.3132L47.7067 72.6764L48.3159 72.6776L48.3142 73.2893L47.0186 73.2833L47.0372 68.8066Z" fill="#798086"/>
<path d="M52.0321 73.0597L52.7041 72.9247L52.3271 71.05C52.5517 71.0045 52.6056 71.0347 52.6451 71.2389L52.8892 72.4564C52.9325 72.6666 52.9707 72.7553 53.0446 72.8559L53.7034 72.7247C53.6236 72.5974 53.602 72.5261 53.5587 72.3142L53.3392 71.216C53.2848 70.9405 53.1978 70.7864 53.0471 70.7201C52.9877 70.6917 52.9588 70.684 52.8523 70.6641C53.0365 70.524 53.093 70.431 53.1002 70.2578C53.1027 70.1351 53.0836 69.9339 53.0526 69.7874L52.9512 69.2754C52.865 68.8535 52.7737 68.6671 52.6167 68.5622C52.4439 68.4591 52.2898 68.4425 51.9493 68.5109L51.1533 68.6705L52.0321 73.0597ZM51.9433 69.1333C52.1683 69.0908 52.2231 69.1273 52.2639 69.3303L52.4303 70.1594C52.4702 70.364 52.4333 70.4187 52.2104 70.4637L51.9433 69.1333Z" fill="#798086"/>
<path d="M57.1414 68.7172L57.6054 68.8589C57.9913 68.9706 58.1208 69.0946 58.2991 69.4788L58.516 69.9534L58.5988 70.1321C58.6433 70.2293 58.6739 70.3257 58.6952 70.4195C58.775 70.7578 58.5937 71.0694 58.2057 71.2499C57.9616 71.3632 57.701 71.3781 57.5125 71.2885C57.4152 71.2529 57.3282 71.1751 57.2548 71.0809C57.197 71.0037 57.1491 70.9153 57.0986 70.8211L57.0175 70.6453L56.7479 70.0591L57.3703 69.7742L57.7048 70.4993C57.7358 70.566 57.7553 70.6084 57.7748 70.636C57.8138 70.7065 57.8763 70.7289 57.9493 70.695C58.0584 70.6449 58.0605 70.585 57.9663 70.3774L57.7408 69.8892C57.6292 69.6468 57.5774 69.5972 57.3316 69.5309L56.8668 69.3845C56.4643 69.2669 56.3336 69.1586 56.1697 68.8033L55.9816 68.3949L55.8997 68.2183C55.8615 68.1181 55.8258 68.023 55.8054 67.9301C55.7282 67.5875 55.9124 67.2814 56.2911 67.1082C56.5348 66.9953 56.792 66.98 56.9801 67.0649C57.0739 67.1099 57.1643 67.1782 57.2301 67.2733C57.324 67.3939 57.3358 67.4185 57.4687 67.711L57.6975 68.2051L57.0926 68.4811L56.8009 67.8477C56.7063 67.6414 56.6596 67.604 56.5505 67.6545C56.4469 67.7017 56.4448 67.7624 56.5394 67.9687L56.7296 68.3834C56.831 68.6025 56.8757 68.634 57.1414 68.7172Z" fill="#798086"/>
<path d="M59.4893 65.4357L60.0467 65.0371L62.657 68.6719L62.1018 69.0718L59.4893 65.4357Z" fill="#798086"/>
<path d="M62.8159 63.8515L62.4984 64.1967L62.0488 63.7832L63.1509 62.5898L63.6005 63.0029L63.2702 63.3578L66.1132 65.9784L65.6577 66.4713L62.8159 63.8515Z" fill="#798086"/>
<path d="M64.6867 60.1019L66.0125 60.63L64.9669 59.6612L65.3354 59.083L67.3943 61.0884L68.7961 61.9812L68.4212 62.5692L67.0025 61.6658L64.3076 60.697L64.6867 60.1019Z" fill="#798086"/>
<path d="M27.3296 57.4472L27.4358 57.7367L26.9692 57.9078C26.8164 57.6862 26.6309 57.6259 26.3061 57.6811L26.1172 57.164L30.3149 55.6162L30.5535 56.2585L27.3296 57.4472Z" fill="#798086"/>
<path d="M28.2727 53.2391L28.7011 53.2251C29.0313 53.2167 29.0513 53.2155 29.1969 53.1776C29.3098 53.1479 29.4164 53.097 29.4941 53.0209C29.6439 52.8817 29.7318 52.6444 29.7233 52.3638C29.7089 51.9269 29.4945 51.6383 29.1489 51.581C29.0547 51.5635 28.9549 51.5529 28.8475 51.5563L28.6518 51.5623L26.1756 51.6349L25.982 51.6409C25.875 51.6445 25.7757 51.6609 25.6814 51.6846C25.5689 51.7147 25.4705 51.7644 25.3911 51.834C25.2331 51.9779 25.1546 52.2169 25.1627 52.5052C25.1741 52.9467 25.3792 53.2303 25.7277 53.2931C25.8232 53.3114 25.9255 53.3223 26.0325 53.3181L26.2261 53.3121L27.3456 53.279C27.776 53.267 27.9904 53.0451 27.9798 52.6371C27.9756 52.4949 27.9505 52.3943 27.8805 52.2831L28.8259 52.2542C28.9753 52.2518 29.0152 52.2506 29.0496 52.27C29.0899 52.2955 29.1111 52.3349 29.1133 52.388C29.1163 52.5014 29.0632 52.5366 28.8361 52.5447L28.2524 52.5613L28.2727 53.2391ZM26.0436 52.3378L27.0819 52.3064C27.3239 52.2992 27.3732 52.3187 27.3766 52.4389C27.3782 52.5203 27.3328 52.5683 27.253 52.584C27.2131 52.5852 27.1732 52.5925 27.0909 52.5937L26.0516 52.6251C25.9103 52.6299 25.864 52.6247 25.8296 52.6059C25.7956 52.5801 25.7676 52.5342 25.7664 52.4875C25.763 52.3721 25.8164 52.3446 26.0436 52.3378Z" fill="#798086"/>
<path d="M26.1766 47.9555L26.1308 48.2599L25.6383 48.1848C25.6124 47.9169 25.4783 47.7747 25.168 47.6656L25.2512 47.123L29.6751 47.7921L29.5737 48.4692L26.1766 47.9555Z" fill="#798086"/>
<path d="M27.6822 43.1201L26.9613 42.8836C26.7444 42.8131 26.7015 42.7711 26.7401 42.6574C26.7754 42.549 26.8348 42.5402 27.0518 42.6107L27.7734 42.8467C27.995 42.9193 28.032 42.9587 27.9959 43.067C27.9585 43.1812 27.9063 43.1918 27.6822 43.1201ZM28.1139 43.593C28.1453 43.821 28.2026 43.9237 28.3555 44.0035C28.4208 44.0391 28.493 44.0769 28.5669 44.108C28.6811 44.1513 28.7358 44.1763 28.7422 44.178L29.252 44.3444L29.438 44.4064C29.5394 44.4395 29.6396 44.4578 29.7352 44.4675C29.851 44.4771 29.9691 44.4663 30.0599 44.425C30.2565 44.3409 30.4182 44.1483 30.5061 43.8778C30.639 43.4716 30.5388 43.1268 30.2301 42.9494C30.0998 42.8691 30.0748 42.8611 29.7683 42.7618L29.2588 42.5971C29.2329 42.5886 29.1731 42.5767 29.0754 42.552C28.9757 42.5329 28.8963 42.5126 28.8407 42.5084C28.7541 42.4939 28.6658 42.5075 28.5889 42.5462C28.5189 42.5869 28.4917 42.6068 28.4064 42.7011C28.3788 42.4782 28.3257 42.3831 28.1759 42.2999C28.0761 42.2401 27.8808 42.148 27.7773 42.1119L27.4139 41.9943C27.1082 41.8954 27.0823 41.8873 26.9325 41.8733C26.8166 41.858 26.7049 41.8781 26.6081 41.9162C26.4111 41.9998 26.2545 42.1951 26.1675 42.4621C26.0337 42.8713 26.1339 43.216 26.4366 43.3914C26.519 43.4389 26.6115 43.4827 26.7134 43.5158L26.8976 43.5756L27.2619 43.6961C27.523 43.7806 27.7908 43.8044 27.9076 43.7504C27.9882 43.7203 28.0197 43.688 28.1139 43.593ZM29.6099 43.7496L28.7413 43.466C28.5253 43.3951 28.4832 43.3535 28.5197 43.2372C28.5546 43.128 28.6136 43.1191 28.8318 43.1913L29.6982 43.4732C29.9156 43.5432 29.9584 43.5879 29.9236 43.6965C29.8859 43.8107 29.8264 43.8196 29.6099 43.7496Z" fill="#798086"/>
<path d="M48.6184 28.2508L48.6197 27.5465C48.6197 27.4735 48.6197 27.4328 48.6133 27.3929C48.6066 27.3131 48.5526 27.2655 48.4783 27.2655C48.3578 27.2655 48.3315 27.3186 48.331 27.5461L48.3285 30.3314C48.3276 30.5602 48.3544 30.6129 48.4745 30.6129C48.5896 30.6133 48.6159 30.567 48.6163 30.3301L48.6172 29.4522H48.4839L48.4835 28.8409L49.3028 28.8433L49.2994 31.179L48.9305 31.1786L48.8847 31.002C48.79 31.1582 48.6486 31.2245 48.4266 31.224C48.1859 31.224 47.938 31.1234 47.8093 30.9689C47.7359 30.8955 47.69 30.7855 47.6633 30.6721C47.6433 30.5783 47.6357 30.4781 47.6289 30.3712L47.6298 30.175L47.6328 27.7005L47.6336 27.5048C47.6404 27.3983 47.6476 27.2976 47.6676 27.2042C47.7423 26.8608 48.0369 26.6613 48.4665 26.6621C48.7484 26.6617 48.99 26.75 49.1233 26.9105C49.1967 26.9902 49.2451 27.0913 49.2714 27.2042C49.2977 27.3524 49.3045 27.38 49.3037 27.7018L49.3028 28.252L48.6184 28.2508Z" fill="#798086"/>
<path d="M38.0697 34.2724L37.5132 34.6718L36.4005 33.1321L36.1721 33.2977L37.2852 34.8378L36.7287 35.2382L34.1094 31.6093L34.6634 31.2082L35.8189 32.8082L36.0473 32.6435L34.8935 31.0456L35.4462 30.6436L38.0697 34.2724Z" fill="#798086"/>
<path d="M44.9922 31.4162L44.2735 31.5555L43.4601 29.3942L43.8914 31.6289L43.272 31.7487L42.4238 27.354L43.1366 27.2169L43.9479 29.3684L43.5182 27.1434L44.144 27.0225L44.9922 31.4162Z" fill="#798086"/>
<path d="M58.894 34.0489L58.2687 33.6681L59.1195 31.5225L57.9376 33.4651L57.3984 33.1374L59.7265 29.3154L60.3459 29.6928L59.499 31.832L60.68 29.8945L61.2221 30.226L58.894 34.0489Z" fill="#798086"/>
<path d="M34.4592 35.9263L34.5984 36.0605C34.6706 36.1407 34.7381 36.2154 34.7912 36.2944C34.9932 36.5907 34.9334 36.9426 34.6286 37.2564C34.4295 37.4644 34.1956 37.5726 33.9842 37.5573C33.8755 37.5549 33.7706 37.5182 33.6704 37.4589C33.5893 37.4084 33.5117 37.3434 33.428 37.2738L33.2888 37.1384L31.5066 35.4191L31.3674 35.2849C31.2952 35.2051 31.226 35.13 31.1713 35.0502C30.9726 34.7551 31.0375 34.4074 31.3415 34.0937C31.5414 33.8857 31.7707 33.7732 31.9808 33.7885C32.0904 33.7909 32.1952 33.8271 32.2954 33.8866C32.3761 33.9366 32.4529 34.0016 32.5348 34.0716L32.677 34.2075L33.1894 34.6999L32.7042 35.203L32.081 34.6019C32.0284 34.5505 31.9995 34.5229 31.966 34.4999C31.9023 34.449 31.8297 34.4549 31.7792 34.5084C31.6956 34.5945 31.7155 34.6527 31.8802 34.8102L33.8844 36.7439C34.0483 36.9018 34.1043 36.9197 34.1905 36.8331C34.2703 36.7516 34.2554 36.6989 34.0839 36.5355L33.4183 35.8923L33.9035 35.3901L34.4592 35.9263Z" fill="#798086"/>
<path d="M38.5336 28.8063L39.9918 32.1316C40.0831 32.34 40.1289 32.3778 40.2325 32.3324C40.3442 32.2832 40.3497 32.2296 40.2558 32.0157L38.798 28.6904L39.4319 28.4141L40.8264 31.5971L40.9045 31.7746C40.9478 31.8735 40.9771 31.972 40.9966 32.0654C41.0675 32.4143 40.8846 32.7149 40.4787 32.8915C40.2147 33.0074 39.9616 33.0167 39.7689 32.9263C39.6751 32.8787 39.591 32.8044 39.5206 32.711C39.465 32.6338 39.4127 32.5476 39.3699 32.4495L39.2901 32.27L37.8955 29.0869L38.5336 28.8063Z" fill="#798086"/>
<path d="M53.8945 31.6625L54.5339 31.8905L54.952 30.9574L55.3197 31.0881L55.0696 32.0832L55.7149 32.3124L56.7185 27.9174L55.8401 27.6045L53.8945 31.6625ZM55.1893 30.4153L55.8584 28.9235L55.4602 30.5125L55.1893 30.4153Z" fill="#798086"/>
<path d="M63.0785 33.6818L63.5455 33.1554C63.5943 33.1002 63.6206 33.0696 63.6427 33.0348C63.6911 32.9703 63.6822 32.8998 63.6271 32.851C63.5379 32.7707 63.4823 32.7929 63.3312 32.9622L61.4773 35.0428C61.3262 35.2122 61.3104 35.2708 61.4 35.351C61.484 35.4266 61.5367 35.4096 61.6942 35.2338L62.2784 34.5779L62.1773 34.4892L62.5848 34.0324L63.1953 34.5775L61.6424 36.321L61.3652 36.0752L61.4458 35.9139C61.2743 35.9665 61.1244 35.9235 60.9606 35.7755C60.778 35.615 60.66 35.3743 60.6676 35.1744C60.6616 35.0699 60.6982 34.9591 60.7534 34.8556C60.8015 34.7719 60.8629 34.693 60.9292 34.6081L61.0604 34.4624L62.7079 32.6137L62.8366 32.4689C62.913 32.3942 62.9843 32.3216 63.0616 32.2651C63.3464 32.0588 63.6984 32.1047 64.0206 32.3908C64.2298 32.5788 64.3517 32.8034 64.3453 33.014C64.3477 33.1226 64.3156 33.2296 64.2583 33.3319C64.1802 33.4602 64.1679 33.4856 63.9548 33.7259L63.5888 34.1364L63.0785 33.6818Z" fill="#798086"/>
<path d="M30.8945 39.0418C30.8945 39.3067 30.6797 39.5211 30.4153 39.5211C30.1504 39.5211 29.9355 39.3067 29.9355 39.0418C29.9355 38.7769 30.1504 38.5625 30.4153 38.5625C30.6797 38.5625 30.8945 38.7769 30.8945 39.0418Z" fill="#798086"/>
<path d="M30.8945 61.1023C30.8945 61.3672 30.6797 61.5816 30.4153 61.5816C30.1504 61.5816 29.9355 61.3672 29.9355 61.1023C29.9355 60.8374 30.1504 60.623 30.4153 60.623C30.6797 60.623 30.8945 60.8374 30.8945 61.1023Z" fill="#798086"/>
<path d="M51.9749 29.2924L51.3135 29.1807L51.4056 28.625L52.9886 28.9039L52.8957 29.4605L51.9749 29.2924Z" fill="#798086"/>
<path d="M50.009 49.0087C50.0107 49.0051 51.0232 47.6689 51.1404 47.5263C51.0291 47.5538 51.0886 47.4393 51.0996 47.3488C51.1926 47.3297 51.8922 46.2875 52.1354 46.077L52.144 46.0128C52.155 46.0104 52.3342 46.5808 52.445 46.6971C52.2879 47.1268 52.1291 47.5602 51.9708 47.9873C51.8999 48.346 51.9666 48.6996 51.8574 49.0435C51.7462 49.3967 51.3162 49.8301 50.9332 49.9384C50.7392 49.9973 50.5873 49.994 50.403 50.084C50.0345 50.3115 49.6686 50.5425 49.3026 50.7734C48.8064 50.5446 49.9475 49.4608 50.009 49.0087ZM54.5468 47.9478L54.5404 47.995C54.6083 47.9901 54.5935 47.9771 54.5841 48.0412L54.5404 47.995C54.4899 47.9986 54.5086 47.9829 54.5468 47.9478ZM41.7296 56.6586C41.8387 56.6059 41.9495 56.5546 42.0582 56.5006C42.4487 56.4748 42.6793 56.3075 43.0167 56.1835C43.1148 56.1474 43.2171 56.1143 43.316 56.0812L43.3657 56.0788C43.2579 56.8612 42.7026 57.6368 43.0354 58.3695C43.1038 58.4723 43.1747 58.5772 43.2409 58.6829C43.3487 58.721 43.4557 58.7606 43.5669 58.7992C43.6879 58.8582 43.7796 58.9762 43.907 59.0246C43.9851 59.0198 43.9893 59.071 44.0399 59.1023C44.2644 59.25 44.4368 59.16 44.6635 58.9762L44.6702 58.9265C44.8714 58.9142 44.961 58.9881 45.1754 58.8937C45.1962 58.735 45.141 58.6352 45.1865 58.4599C45.11 58.4647 45.3516 58.3206 45.414 58.254C45.5057 58.2492 45.4127 58.0782 45.3983 58.0133C45.3308 58.0181 45.3444 58.0333 45.3529 57.9678L45.4212 57.9436C45.5779 57.6732 45.7366 57.3994 45.8924 57.1302C46.0665 56.9159 46.2423 56.7049 46.4189 56.4934C46.4664 56.3873 46.4732 56.3067 46.4486 56.2133C46.7597 56.1938 46.8578 55.478 46.8272 55.2763C46.9402 55.2703 47.4649 54.7206 47.6309 54.612C47.796 54.5372 47.9654 54.4625 48.1318 54.3853L48.153 54.3717C48.2345 54.3669 48.2112 54.2452 48.232 54.1747C48.2431 54.0966 48.2091 54.1293 48.1365 54.1327L48.1432 54.0864C48.2413 54.0924 48.3377 54.1008 48.434 54.1097C48.6484 54.0338 48.8607 53.9582 49.0716 53.8818C49.0806 53.8159 49.1854 53.7459 49.1523 53.7115C49.2988 53.6987 49.4482 53.6882 49.5955 53.6771C49.8668 53.6168 50.633 53.2534 50.8389 53.0424C50.8716 53.04 50.906 53.0388 50.9383 53.0364C50.9307 53.1031 50.9166 53.0865 50.982 53.0823C50.9931 53.0063 51.0911 53.0003 51.1476 52.9753C51.157 52.9125 51.1399 52.9281 51.2053 52.9244L51.1981 52.9727C51.3093 52.9643 51.2562 54.0026 51.4265 54.2077L51.4766 54.2041C51.4503 54.2682 51.4265 54.3348 51.4002 54.4015C51.3891 54.4019 51.3985 54.5942 51.359 54.6936L51.4104 54.6911C51.387 54.8546 51.8935 54.633 51.972 54.6063L51.9796 54.5566C51.9779 54.5914 51.9766 54.628 51.9766 54.6627C51.9447 54.8134 51.8467 54.9259 51.7236 55.0249C51.1479 55.4859 51.4081 56.1176 51.4761 56.6168C51.4863 56.7824 51.4943 56.9518 51.5037 57.1233C51.5478 57.2244 51.5907 57.3279 51.634 57.4306C51.6174 57.5351 51.6021 57.6454 51.5877 57.7533C51.5699 58.002 51.6111 58.2198 51.6921 58.4219L51.6841 58.4694C51.7363 58.4658 51.8479 58.1599 52.042 58.0602L52.0279 58.0937C51.9672 58.2228 51.9061 58.3497 51.8475 58.4758C51.7554 58.8052 51.8038 59.3847 52.033 59.5541C51.9995 59.7973 51.9511 59.9892 52.2105 60.069C52.2177 60.0202 52.2245 59.9723 52.2317 59.9239C52.2474 59.8033 52.3629 59.6798 52.4194 59.5732C52.4758 59.4229 52.534 59.2786 52.5917 59.1313C52.7 59.1253 52.5111 58.9576 52.4745 58.9008C52.4032 58.9056 52.461 58.7377 52.4576 58.6596C52.5229 58.6548 52.5917 58.6512 52.6601 58.6469C52.7059 58.3158 52.6282 58.0712 52.4711 57.8424C52.3998 57.8472 52.4924 57.8093 52.5276 57.7906L52.5343 57.7418C52.6078 57.7382 52.55 57.7514 52.5781 57.7885L52.5717 57.8357C52.6367 57.8309 52.6299 57.8321 52.6481 57.7749C52.8035 57.327 52.9712 56.8825 53.1648 56.4517C53.2467 56.4468 53.2148 56.408 53.2123 56.348C53.2335 56.1859 53.2556 56.0271 53.2777 55.8692C53.3125 55.4795 53.3112 55.0227 53.4645 54.6529C53.4029 54.6565 53.3787 54.2378 53.2874 54.1354C53.2977 54.0607 53.3532 54.0323 53.4084 53.9839C53.4288 53.8391 53.4488 53.6905 53.4687 53.5462C53.484 53.4375 53.6237 53.3191 53.7107 53.2435C53.7323 53.0792 53.7026 52.9421 53.7273 52.7604C53.6445 52.7652 53.6275 52.7252 53.5906 52.6746C53.5243 52.6782 53.5388 52.6933 53.5473 52.6301C53.647 52.6229 53.7396 52.4811 53.774 52.4038C53.81 52.2616 53.8487 52.1215 53.8852 51.9827C54.1823 51.3701 54.5542 51.2665 55.1095 50.9549C55.1914 50.8955 55.2717 50.8382 55.3515 50.7804C55.3651 50.6904 55.2411 50.7065 55.1651 50.6985L55.1723 50.6463C55.3218 50.6366 56.0503 50.001 56.1636 49.8494C56.2022 49.7505 56.243 49.6516 56.282 49.5544C56.403 49.5069 56.5325 49.5664 56.6166 49.5925L56.6233 49.5442C56.7333 49.4889 56.8402 49.435 56.9472 49.3765C56.9575 49.3039 56.9863 49.3264 57.0559 49.3212C57.0673 49.2435 56.9812 49.2503 56.9179 49.2342C56.9302 49.1481 57.013 49.1528 57.0826 49.1289L57.0894 49.0806C57.0444 49.083 57.0057 49.0794 56.996 49.0386C57.035 48.7507 57.2027 48.7278 57.4328 48.7673C57.4376 48.7342 57.7177 48.313 57.7525 48.2689C57.823 48.2641 57.8344 48.1246 57.8794 48.0668C57.8674 48.1517 57.9787 48.0764 58.0327 48.056C58.0191 48.1494 58.1579 47.9537 58.2021 47.901C58.1252 47.9059 58.1163 47.8527 58.0658 47.8144L58.0718 47.7655C58.1566 47.7435 58.245 47.7235 58.3308 47.7022L58.338 47.6542C58.8105 47.6223 59.0601 47.2879 59.5012 47.1928C59.5156 47.0888 59.5937 47.048 59.6786 46.9886C59.6858 46.9414 59.6934 46.8893 59.7003 46.8417C59.6642 46.8429 59.6311 46.8453 59.5988 46.8477C59.5868 46.9369 59.4384 47.001 59.3709 47.0574C59.3093 47.0598 59.2057 46.9521 59.1378 46.9292L59.145 46.8775C59.3344 46.8652 59.3679 46.6279 59.5691 46.7077L59.6192 46.7029C59.6264 46.6494 59.6132 46.6404 59.5819 46.6099C59.6005 46.4894 59.5632 46.5513 59.5526 46.469C59.5635 46.3981 59.0347 46.6227 58.9277 46.6528C58.9386 46.5751 59.0046 46.694 58.9447 46.6588L58.9507 46.6113C59.1082 46.6005 59.1952 46.3766 59.2729 46.2717C59.2826 46.202 59.2199 46.2033 59.1629 46.1902C58.8509 46.1197 57.7556 46.5625 57.4169 46.6856C57.1579 46.7765 56.8994 46.8695 56.6409 46.965C56.4677 47.0588 56.294 47.1552 56.1225 47.2515C55.5503 47.5118 54.9563 47.6727 54.3951 47.9571L54.4019 47.9087C54.3454 47.9123 54.3441 47.9003 54.3089 47.8671C54.3352 47.6752 54.3692 47.5321 54.2754 47.3869C54.3051 47.3055 54.3382 47.2231 54.3671 47.1403C54.4218 46.72 54.4791 46.3036 54.5339 45.8816C54.4481 45.8864 54.5687 45.7912 54.6052 45.733C54.6944 45.727 54.6235 45.6485 54.6048 45.5976C54.4456 45.1981 54.6464 44.7061 54.6154 44.2395C54.5988 43.967 54.4766 43.8265 54.6124 43.5204C54.5381 43.5252 54.5572 43.492 54.5432 43.444C54.4201 43.053 54.2515 43.1927 53.9225 43.0819C53.9276 43.0513 53.9331 43.0165 53.9365 42.9859C54.0083 42.9811 54.0962 42.9074 54.1513 42.8768C54.1802 42.6764 53.8346 42.544 53.7073 42.4727C53.7006 42.5254 53.3745 42.5771 53.2951 42.6102C53.1002 42.6968 52.8922 42.7711 52.674 42.7579C52.5309 42.7495 52.4053 42.6743 52.2342 42.7134C51.7778 42.8238 50.7874 43.7603 50.3761 44.1322L50.4287 44.1285C50.4168 44.2122 50.5442 44.2058 50.6155 44.2122C50.6116 44.2436 50.6069 44.2772 50.6019 44.3089C50.5361 44.3137 50.5539 44.2969 50.5454 44.3598C50.4096 44.3695 50.0814 44.5055 49.9706 44.6018C49.7469 44.8052 49.6629 45.1422 49.4795 45.3783C49.3742 45.5128 49.1594 45.5472 49.0893 45.7268C49.0885 45.768 49.0885 45.8088 49.0872 45.8512L49.0813 45.8992C48.5871 45.931 47.6468 48.2269 47.1671 48.5232C47.1604 48.5559 47.1577 48.5873 47.1527 48.6196L47.103 48.622C47.0805 48.9438 46.8886 49.0754 46.7558 49.3369C46.6776 49.4986 46.6517 49.6238 46.5435 49.7661C46.6288 49.76 46.5656 49.8106 46.5303 49.8616C46.6016 49.858 46.4828 49.9788 46.4624 50.0599C46.3966 50.321 46.1746 50.4984 46.0536 50.7315C45.7895 51.2392 45.5047 51.6769 45.348 52.2466C45.0496 52.2661 45.168 52.6091 45.2873 52.6855L45.2801 52.7331C44.9515 52.7542 44.915 53.0982 44.8972 53.335L44.8479 53.3374C44.8577 53.2652 44.8259 53.2941 44.7745 53.3099C44.3453 53.4559 43.9794 53.5718 43.6198 53.8991C43.5273 53.9051 43.6207 53.9616 43.6563 53.9917L43.6499 54.0405C43.3366 54.0613 43.1706 54.0953 42.8684 54.2872C42.6077 54.4578 42.2749 54.8683 41.9421 54.8233L41.8899 54.8281L41.8823 54.8748C41.8008 54.8809 41.8301 54.9623 41.8127 55.0238C41.8012 55.1036 41.6161 55.2204 41.563 55.2989C41.4837 55.4208 41.3593 55.4942 41.265 55.6105C41.1007 55.8253 40.9509 56.0648 40.9055 56.328C40.8728 56.5275 41.5432 56.6917 41.7296 56.6586Z" fill="#2C71BC"/>
<path d="M74.2713 46.5556C73.9911 46.5387 73.7402 46.7297 73.5186 46.8987L73.3051 47.0574L72.3779 47.6021L71.4928 48.1196C70.983 48.3586 70.5521 48.5216 70.1373 48.6358L69.8593 48.7377C69.7884 48.7717 69.7221 48.8066 69.596 48.8358L69.5791 48.8406L69.5731 48.8514L69.5247 48.8184L69.4767 48.7806C69.334 48.6936 69.2958 48.4762 69.2958 48.2219C69.2958 48.0614 69.3103 47.8904 69.3252 47.7278C69.3388 47.563 69.3532 47.4013 69.3532 47.2604C69.3532 47.192 69.346 47.1317 69.3375 47.0736C69.5149 47.0119 69.5412 46.6202 69.5629 46.267C69.5725 46.1146 69.5815 45.9711 69.602 45.915C69.6359 45.8292 69.7323 45.7478 69.8176 45.6765L69.8385 45.659L69.8457 45.6238C69.8457 45.6238 69.8373 45.406 69.836 45.3746C69.9817 45.2081 70.1909 44.5051 70.1931 44.4971C70.2027 44.458 70.2075 44.4207 70.2075 44.3812C70.2075 44.3358 70.1991 44.295 70.1917 44.2538C70.2406 44.2288 70.2606 44.1719 70.2715 44.1363L70.2824 44.1057L70.2884 44.0764L70.3004 44.0716L70.401 44.0275L70.3738 43.9855C70.3786 43.9734 70.4664 43.786 70.4847 43.7435L70.5339 43.7129L70.5459 43.676L70.5331 43.6395C70.5964 43.6039 70.6512 43.5236 70.7017 43.451L70.7679 43.3635L70.9831 43.1534C71.1215 43.0214 71.2514 42.8991 71.3652 42.7416L71.4747 42.4631L71.5269 42.3277L71.5974 42.236C71.6874 42.1226 71.7884 41.9945 71.7884 41.8272L71.7836 41.7666C71.7472 41.5097 71.5217 41.4142 71.3396 41.3369L71.301 41.3203L71.3082 41.2711L71.2509 41.2707L71.214 41.2683C71.1558 41.2659 71.11 41.2623 71.076 41.2575C71.1324 41.1904 71.1613 41.0813 71.1788 41.0036C71.214 40.9952 71.2404 40.9794 71.2632 40.9547L71.3321 40.8822L71.2165 40.8635L71.2093 40.8372L71.1919 40.7727L71.1536 40.7718L70.9876 40.7622L70.9278 40.9273C70.8811 40.9142 70.8455 40.8882 70.8131 40.8237L70.8004 40.7978L70.7486 40.7918L70.745 40.787L70.7474 40.781L70.7547 40.739L70.6735 40.7051L70.6986 40.6614L70.6252 40.6518L70.6276 40.6335L70.6348 40.5779L70.6165 40.5193L70.5749 40.5001C70.5626 40.4484 70.5243 40.4178 70.5001 40.4037L70.4881 40.3965L70.5009 40.3448L70.4419 40.3265C70.3863 40.3229 70.3039 40.2921 70.216 40.2594C70.0331 40.1911 69.8263 40.1143 69.6769 40.2034C69.6072 40.2459 69.5661 40.3286 69.5411 40.4352C69.5164 40.4255 69.4914 40.419 69.4651 40.4004L69.4198 40.3707L69.4089 40.327L69.3295 40.3036H69.2518L69.2433 40.3508C69.2217 40.5308 69.1881 40.5694 69.0557 40.6599L68.9322 40.7405C68.9322 40.7405 69.0022 40.7477 69.0447 40.7528L69.0326 40.7702L68.9621 40.9031C68.7613 41.2754 68.5707 41.6494 68.5707 41.8574C68.5707 41.8812 68.5779 41.8999 68.583 41.9202C68.524 41.9166 68.3758 41.9071 68.3758 41.9071L68.3698 41.9577C68.3282 42.3083 68.2293 42.4361 68.0688 42.6501L67.9334 42.8305L67.7627 43.1544L67.7075 43.26C67.5768 43.4269 67.4838 43.6277 67.3934 43.8242C67.302 44.0178 67.2168 44.2012 67.0941 44.3608L66.8398 44.6329C66.7434 44.762 66.6581 44.9373 66.5694 45.1258C66.4654 45.3419 66.3567 45.5665 66.2365 45.7015L66.2191 45.7146L66.0501 45.842C65.7648 46.1115 65.3828 46.5131 65.2529 46.9347L65.2045 46.9443L65.1961 46.9491C64.7236 47.2531 64.2978 47.7493 63.9212 48.1874L63.7769 48.353L63.5825 48.5946L63.5294 48.6604L63.3129 48.8158C63.2156 48.8747 63.1176 48.9363 63.0242 49.031L62.7916 49.3328L62.7614 49.3719C62.7044 49.4272 62.5992 49.4144 62.4888 49.4033C62.386 49.3937 62.2744 49.3902 62.1844 49.445C62.274 48.7551 62.4375 48.1965 62.7397 47.5461L62.7881 47.5155L62.8012 47.4747L62.7892 47.4255L62.7819 47.4022C62.7771 47.3844 62.7759 47.3627 62.7759 47.3385C62.7759 47.0766 62.9941 46.4691 63.1228 46.1931L63.1397 46.1562L63.1066 46.1367L63.1175 46.1176L63.1539 46.0492L63.1934 45.8302L63.2393 45.5632C63.3004 45.2388 63.4337 44.6347 63.651 44.1975L63.7172 44.2023L63.7124 44.1373L63.7088 44.102C63.7016 44.0456 63.6968 43.9878 63.6968 43.9305C63.6968 43.7251 63.7485 43.5209 63.8449 43.315L63.9171 43.3198L63.8959 43.2162C63.7787 42.7827 63.3602 42.106 62.726 42.1022C61.9385 42.0974 61.1391 44.0839 60.9939 44.7962C60.9523 44.8035 60.8538 44.8238 60.8538 44.8238L60.816 44.8322L60.8112 44.87C60.7921 45.0347 60.7301 45.1697 60.666 45.3128L60.5757 45.5306L60.3142 46.2073L60.1668 46.5787L60.225 46.5945C60.225 46.5945 60.2938 46.6131 60.3536 46.6297C60.298 46.6273 60.1328 46.6177 60.1328 46.6177L60.1268 46.6669C60.1116 46.7964 60.0563 46.9242 60.0033 47.0443L59.9264 47.2371L59.9133 47.3101L59.8552 47.6603L59.7477 47.8633L59.6925 47.9728C59.6004 48.2143 59.56 48.4478 59.5172 48.6962L59.4708 48.9555L59.4326 49.1478C59.3936 49.3367 59.3557 49.524 59.3557 49.7018C59.3557 49.8852 59.4019 50.0648 59.525 50.2321L59.5238 50.2429L59.3197 50.1868L59.2988 50.3282L59.3383 50.3477C59.3383 50.3477 59.3892 50.3697 59.4231 50.3841C59.4147 50.4673 59.4079 50.5497 59.4079 50.6287C59.4079 51.074 59.5488 51.4586 59.8396 51.8165L59.9279 51.9201C60.0158 52.0237 60.085 52.1026 60.1351 52.2457L60.1471 52.2793L60.73 52.3137L60.7324 52.289C60.7944 52.3128 61.0852 52.4257 61.0852 52.4257L61.1047 52.4233L61.3946 52.3949C61.6323 52.3818 61.8964 52.3635 62.0322 52.2565C62.0431 52.2574 62.0598 52.2589 62.0878 52.2601L62.083 52.2971L62.0746 52.396H62.1298C62.3892 52.4117 62.5539 52.2665 62.7144 52.1268L62.905 51.9706L62.911 51.9481L62.9135 51.9056C62.9135 51.8551 62.8965 51.8186 62.8824 51.7821C62.9202 51.7749 62.966 51.7532 63.0267 51.7184L63.1231 51.6662L63.1183 51.6433L63.095 51.5661L63.0572 51.5449C63.1531 51.5365 63.2372 51.5148 63.3064 51.488C63.3959 51.4549 63.4452 51.4027 63.4923 51.3521L63.5993 51.2545L63.8447 51.117C64.0654 51.0015 64.3125 50.8687 64.4513 50.6454C64.4886 50.6357 64.5544 50.5927 64.6916 50.431L64.7012 50.4182L64.7048 50.3843C64.7409 50.364 64.7651 50.3321 64.7774 50.3054L64.8012 50.2654H64.8036C65.111 50.1831 65.308 49.8655 65.499 49.562C65.6246 49.3569 65.7558 49.1481 65.9078 49.022L65.9234 49.0079L65.9246 48.9935L65.968 48.9959L65.974 48.942L65.9824 48.8778L65.9518 48.8473L65.9238 48.8337C65.8979 48.8214 65.8674 48.8036 65.8462 48.7823C65.9994 48.7415 66.1383 48.6379 66.1934 48.5051C66.2117 48.4631 66.2206 48.4184 66.2206 48.3752C66.2206 48.3271 66.2054 48.2805 66.1842 48.2338L66.4304 48.2113C66.4507 48.2482 66.4694 48.2996 66.4856 48.3531C66.5306 48.5017 66.5931 48.6906 66.7531 48.8018C66.7276 48.7994 66.6486 48.7946 66.6486 48.7946L66.6426 48.8383L66.6001 48.8359L66.5941 48.8855L66.5893 48.9484C66.5893 49.2077 66.7808 49.4459 66.9748 49.5431L66.9808 49.5455L66.976 49.5736L66.9582 49.582L66.9459 49.6273C66.9459 49.6859 66.9956 49.7594 67.0579 49.8528C67.1229 49.9508 67.2078 50.0824 67.2078 50.1678L67.2042 50.1894L67.1795 50.2162L67.1747 50.2399C67.1747 50.2943 67.2609 50.388 67.8038 50.7832L67.8641 50.8269L67.9817 50.9666C68.0229 51.0244 68.0679 51.0791 68.1273 51.1258C68.1165 51.153 68.0971 51.1819 68.0743 51.2078L67.9779 51.3334L68.081 51.3382C68.1362 51.3418 68.2661 51.4329 68.3701 51.5063C68.4774 51.5819 68.5798 51.6541 68.66 51.6825L68.7237 51.705L68.7573 51.4223C68.8192 51.4247 69.0854 51.4418 69.0854 51.4418L69.1669 51.4206L69.1928 51.3425C69.2399 51.3672 69.2845 51.3989 69.3286 51.4389L69.5502 51.6049L69.5538 51.5107L69.555 51.5035C69.659 51.4843 69.7507 51.4054 69.7974 51.3553C69.8293 51.3565 69.9452 51.3601 69.9452 51.3601C70.3731 51.3848 70.5238 51.1661 70.7127 50.894L70.7866 50.7883L70.7989 50.6699L70.7416 50.6695L70.6996 50.6671L70.6767 50.6412C70.644 50.6221 70.6109 50.6421 70.577 50.6633L70.5324 50.6572L70.532 50.6524C70.532 50.6308 70.5468 50.5705 70.6385 50.4219L70.8236 50.4835L70.8308 50.4182L70.8392 50.3982C70.869 50.3846 70.9577 50.4211 71.0256 50.4652L71.0459 50.5179C71.0757 50.5455 71.1147 50.5446 71.1516 50.5404C71.1644 50.5795 71.1847 50.6121 71.2064 50.6363V50.6375C71.2064 50.6617 71.2112 50.6868 71.2275 50.7054C71.2522 50.7296 71.2836 50.7271 71.307 50.7245L71.3809 50.7221L71.3931 50.6733L71.4003 50.6244L71.3859 50.5888L71.3476 50.574L71.3404 50.5401L71.3524 50.5292L71.3645 50.4987L71.4609 50.5047V50.5035C71.4957 50.5083 71.5287 50.486 71.5543 50.4674L71.5615 50.4626L71.7652 50.4333L71.7604 50.3357L71.7727 50.3485L71.7751 50.3624L71.7727 50.3777C71.785 50.3578 71.8572 50.2975 72.2032 50.1205L72.2304 50.1044L72.3123 50.1092L72.3159 50.0591L72.3295 49.9458L72.2625 49.953C72.2625 49.953 72.0587 49.9758 72.0286 49.9797L72.037 49.9083L72.0378 49.8939C72.0378 49.8608 72.0242 49.84 72.0115 49.8269C71.9806 49.7933 71.9304 49.7874 71.8795 49.7874L71.8831 49.785L71.8839 49.7655C71.8839 49.7655 71.8911 49.7091 71.896 49.6699C72.0972 49.6479 72.3222 49.4466 72.4258 49.3082L72.4903 49.3131L72.5149 49.1174L72.4694 49.115L72.4815 49.0669L72.5014 49.0597L72.5601 49.0364L72.7634 48.943C73.0168 48.8326 73.1854 48.7507 73.221 48.6785L73.463 48.1105L73.457 48.1033C73.5237 48.0133 73.9087 47.7017 74.025 47.6754L74.0619 47.6669L74.0668 47.6296L74.0672 47.6152C74.0672 47.5362 74.0014 47.439 73.9415 47.3545C73.9415 47.3545 73.9203 47.3226 73.9051 47.2989C73.919 47.276 73.9382 47.2472 73.9675 47.2C74.0444 47.0748 74.2256 46.7768 74.2825 46.742L74.3045 46.7288L74.3237 46.5603L74.2713 46.5556Z" fill="#2C71BC"/>
<path d="M74.1952 44.651H66.1348V36.5889H74.1952V44.651ZM74.5166 35.9453H65.4912V45.2929H74.8388V35.9453H74.5166Z" fill="#EB222C"/>
<path d="M41.6106 43.6423C41.3138 43.5681 40.9161 43.4942 40.6626 43.4619L40.6452 43.474L40.5387 43.5529L40.5361 43.5637C40.4907 43.5589 40.4508 43.5673 40.413 43.5765L40.4152 43.5693L40.3727 43.5608L40.1826 43.5281C40.1376 43.5209 40.0875 43.56 40.0391 43.5981L40.0098 43.619L39.9431 43.5303L39.9249 43.6054L39.9176 43.6287L39.9032 43.6263C39.8985 43.6102 39.8693 43.603 39.7627 43.7116C39.7372 43.6993 39.6727 43.6661 39.6727 43.6661L39.6481 43.6972C39.6349 43.712 39.5585 43.7405 39.5296 43.7506L39.5271 43.7518L39.5224 43.7446C39.5122 43.741 39.4974 43.7386 39.4757 43.7654L39.4307 43.7476L39.3955 43.744L39.3798 43.7631L39.2826 43.9019L39.2732 43.9007L39.2745 43.8421L39.162 43.823L39.1365 43.9058L39.1166 43.9034L39.109 43.9212L39.0173 43.8723L39.0071 43.9182C39.0045 43.9278 38.9846 43.961 38.8483 44.0077L38.8296 44.0137L38.8241 44.032C38.8185 44.0507 38.7905 44.0693 38.7663 44.0859L38.7192 44.1216L38.717 44.13C38.5952 44.124 38.4768 44.1737 38.3617 44.2222L38.2004 44.2855L38.1932 44.3033C38.1618 44.4069 38.1134 44.5537 38.0412 44.6191L38.0123 44.5847L38.0268 44.5358L37.9847 44.5298C37.9257 44.519 37.8799 44.6071 37.8468 44.7009L37.8463 44.6784L37.8158 44.676L37.8099 44.6751L37.8149 44.6594L37.7759 44.6402C37.7377 44.633 37.7118 44.6534 37.6927 44.6827L37.6871 44.6283L37.6587 44.6199C37.6158 44.6127 37.5177 44.6538 37.3216 44.743L37.1123 44.8322L37.1038 44.85C37.08 44.9286 37.0176 44.985 36.9518 45.047C36.8979 45.0941 36.8452 45.1446 36.8058 45.2083C36.6784 45.1892 36.5922 45.2107 36.4908 45.3378L36.4678 45.3462C36.4513 45.3628 36.4458 45.3861 36.4458 45.415L36.4505 45.4656L36.4101 45.4583L36.4352 45.5228L36.4411 45.5364C36.4335 45.5496 36.419 45.5547 36.3812 45.5581L36.36 45.5617L36.3867 45.5027L36.3854 45.5023L36.3884 45.4975L36.318 45.4708L36.315 45.4768C36.306 45.5035 36.2585 45.5396 36.2203 45.5698L36.0399 45.7337L36.1804 45.7014L36.2067 45.6966C36.202 45.7203 36.1931 45.7794 36.1906 45.7977C36.0479 45.878 35.6756 46.3228 35.6718 46.3288L35.6255 46.4163C35.6255 46.4163 35.6064 46.454 35.5916 46.4841C35.5644 46.4877 35.5177 46.51 35.4145 46.5881L35.4124 46.5857L35.4056 46.5632L35.378 46.5432C35.3135 46.5324 35.2982 46.5832 35.291 46.6094L35.2494 46.7478C35.2099 46.8896 35.1993 46.9197 35.027 47.0085L35.0167 46.8739L34.956 46.9966C34.956 46.9966 34.8325 47.2182 34.8168 47.2458L34.6784 47.1409C34.6449 47.1618 34.6347 47.1957 34.627 47.2402L34.5892 47.2342L34.5807 47.2618L34.5637 47.2582L34.551 47.2823L34.4381 47.4734L34.3306 47.6907L34.2075 47.847C34.0866 47.99 33.9639 48.1403 33.9291 48.3381C33.7877 48.3798 33.6501 48.8947 33.2248 49.6512L32.9713 50.0833L32.9548 50.1848V50.192C32.9548 50.2234 32.9514 50.2348 32.9013 50.2607L32.8877 50.2679L32.883 50.2829C32.8384 50.4281 32.8045 50.5066 32.7085 50.6182L32.6958 50.6471L32.6809 50.6947L32.6958 50.6995C32.6809 50.7267 32.613 50.8451 32.613 50.8451L32.6066 50.8845C32.6066 50.9235 32.6253 50.9567 32.641 50.9856L32.6695 51.0454L32.7034 51.0575L32.7208 51.0611C32.6652 51.1825 32.61 51.309 32.61 51.4058C32.61 51.4342 32.6151 51.4614 32.6257 51.4847C32.6415 51.5187 32.675 51.5373 32.7124 51.5526C32.6758 51.6396 32.6168 51.7861 32.6156 51.8935L32.641 51.8863L32.6228 51.9482L32.6618 51.9661L32.7408 51.9805C32.7369 52.0094 32.7179 52.1465 32.7179 52.1465L32.734 52.1501L32.7158 52.1946C32.7158 52.2277 32.7263 52.2769 32.7429 52.3445L32.7145 52.3288L32.6517 52.5976L32.6304 52.6807L32.6283 53.005C32.6227 53.0772 32.5824 53.1528 32.5433 53.2203L32.5375 53.2287L32.5361 53.2678L32.5561 53.2954L32.5658 53.3289L32.5752 53.3654L32.5658 53.369L32.5467 53.4323L32.6333 53.4132C32.7017 53.3971 32.8112 53.5622 32.8702 53.6509L32.9097 53.709L32.9084 53.7114L32.8519 53.7531L32.8574 53.7651L32.857 53.7711L32.8808 53.8102L32.8783 53.8446L32.8952 53.8507L32.8783 53.981L32.8778 53.9822L32.8761 53.9962L32.9521 54.001L32.9364 54.0106L32.9181 54.0082L32.9627 54.0901L32.9771 54.0974L32.9746 54.1148L32.992 54.1602C33.0888 54.2621 33.1274 54.3287 33.1274 54.4268C33.1274 54.5028 33.1062 54.5906 33.0731 54.7235L33.0664 54.7528L33.0498 54.7714L33.0315 54.7965L33.0302 54.7956L33.0289 54.7992C33.0013 54.8345 32.9346 54.9215 32.9346 54.9215L32.9304 54.9367L32.9254 54.9928L32.9589 55.006C33.0243 55.018 33.0523 54.9495 33.0731 54.8934L33.1202 54.9274L33.1334 54.9635L33.1504 54.9514C33.1504 54.9514 33.1826 54.9387 33.2124 54.9276L33.1814 55.029L33.1755 55.0494L33.2056 55.0638C33.2103 55.071 33.2218 55.1011 33.2218 55.1377C33.2218 55.1661 33.2154 55.1989 33.1959 55.2316L33.1925 55.2605C33.1925 55.3097 33.226 55.3688 33.2732 55.4438L33.3012 55.4905L33.2901 55.4897L33.2774 55.5308L33.3937 55.5517L33.4069 55.5275L33.4514 55.4468L33.4833 55.4553C33.4833 55.4553 33.5788 55.4673 33.6085 55.4701L33.6179 55.5381L33.6502 55.5369L33.8539 55.5381L33.862 55.5109C33.8853 55.4345 33.9074 55.4175 33.9613 55.3831L34.0076 55.3822C34.0407 55.3774 34.0479 55.3786 34.059 55.3931L34.0684 55.4051L34.0747 55.4063L34.0752 55.4075C34.0752 55.4436 34.0327 55.5357 34.0191 55.5684L33.9813 55.6546L34.0293 55.6618L34.0849 55.6714L34.0955 55.6451L34.1133 55.6487L34.1256 55.6248L34.2169 55.4771L34.2271 55.4576L34.2288 55.4528L34.253 55.4656H34.2581L34.2551 55.4931L34.2245 55.6612L34.1978 55.8128L34.2381 55.9295L34.2886 56.059L34.2864 56.0626L34.2716 56.1071L34.2958 56.1155L34.2788 56.1703L34.328 56.1555L34.4206 56.1343C34.4652 56.1295 34.5658 56.1319 34.5832 56.1797L34.5904 56.2005L34.6796 56.2158L34.7029 56.1865C34.7152 56.1479 34.7891 56.1568 34.8116 56.1607C34.8116 56.1607 34.8498 56.1743 34.8736 56.1827L34.8625 56.2188L34.9054 56.226C34.9415 56.2332 34.9627 56.212 34.9763 56.1852C34.9983 56.2188 35.0306 56.2489 35.0815 56.2705L35.1236 56.3087L35.1741 56.3558C35.2993 56.4072 35.4258 56.3779 35.5362 56.3522L35.6695 56.3242L35.7298 56.4253L35.7536 56.3417C35.7744 56.2686 35.8559 56.2372 36.004 56.2402C36.0609 56.2498 36.1093 56.1722 36.1713 56.0632L36.1908 56.0304C36.2104 56.0256 36.2728 56.0143 36.297 56.0093L36.2906 56.0279L36.3356 56.0339C36.3169 56.0789 36.2859 56.1532 36.2859 56.1532C36.2485 56.2296 36.2099 56.309 36.1989 56.416L36.195 56.4516L36.288 56.4672L36.2977 56.4353C36.3177 56.3712 36.3708 56.3012 36.4213 56.252L36.4285 56.2544L36.4408 56.2556L36.4849 56.3434L36.5049 56.3879L36.5737 56.3976L36.6887 56.2103L36.6946 56.1925C36.7205 56.1877 36.8084 56.1726 36.8084 56.1726L36.9294 56.1522L37.1731 56.1662L37.2898 56.125C37.3501 56.0953 37.3896 56.0779 37.4172 56.0983L37.4604 56.1292L37.4795 56.0664C37.5131 56.0544 37.5534 56.0333 37.5916 56.0061L37.5725 56.0414L37.7045 56.0643L37.7109 56.0451L37.7491 56.0609L37.8234 56.0953L37.8336 56.052L37.8519 55.9922L37.8145 55.9777L37.8124 55.9477L37.8141 55.944L37.8336 55.9549L37.9036 55.9986L37.9151 55.9497C37.9278 55.9069 37.969 55.8716 38.0284 55.8516C38.0959 55.8288 38.166 55.8333 38.1914 55.8512L38.2343 55.8821L38.2505 55.8312C38.2725 55.7573 38.4173 55.714 38.4929 55.6988L38.5234 55.6928L38.9038 55.6044L38.9658 55.5972L38.9752 55.5725L38.9938 55.5097L38.9883 55.5085L39.0044 55.4916C39.066 55.4867 39.3109 55.4627 39.3755 55.4372L39.3929 55.4299L39.4124 55.3658C39.4455 55.3598 39.4846 55.3531 39.5198 55.348C39.5916 55.362 39.7159 55.2618 39.7563 55.1748L39.7596 55.1739C39.7919 55.196 39.8152 55.1617 39.8577 55.0967L39.8747 55.0725L39.8738 55.0821L40.5751 54.7192L40.6163 54.6891H40.6605L40.6669 54.6585C40.6868 54.5574 40.7343 54.4849 40.8052 54.4488C40.8719 54.4115 40.9551 54.4127 41.0341 54.4536L41.0931 54.4816L41.0867 54.4154C41.0837 54.3798 41.0981 54.1297 41.1151 54.0941C41.1449 54.0601 41.1826 54.0541 41.231 54.0474C41.2803 54.039 41.3363 54.0313 41.3843 53.9824L41.4306 53.9174L41.473 53.8568L41.5851 53.8104C41.6462 53.7913 41.7133 53.7718 41.7608 53.7171C41.8156 53.6512 41.8356 53.5651 41.8542 53.4814L41.9077 53.3176C41.9625 53.2161 42.3925 52.972 42.4698 53.0005L42.5135 53.0158L42.5165 52.9929C42.6061 52.9407 42.9249 52.1422 42.9296 52.1332L43.1219 52.1583L43.1278 52.1362V52.1302C43.3205 52.0975 43.4623 51.9456 43.6003 51.7906C43.7255 51.6505 43.8024 51.3385 43.9501 51.3101L43.9785 51.3016L43.9807 51.2715L43.982 51.2487C43.982 51.1951 43.9672 51.1592 43.937 51.137C43.8793 51.095 43.7944 51.1286 43.7256 51.1561L43.67 51.1778L43.6675 51.2028C43.5333 51.2211 43.4039 51.2725 43.2999 51.3281L43.3007 51.3196L43.2561 51.3233C43.2099 51.3281 43.1666 51.3627 43.1296 51.3938L43.0795 51.4324L42.9492 51.4841L42.9437 51.4733C42.9131 51.4597 42.8906 51.4841 42.874 51.5022L42.8621 51.513C42.6673 51.6777 42.2096 52.0258 42.0453 52.0347L42.0139 52.036L42.0106 52.0632H41.977L41.96 52.0903C41.9439 52.109 41.8382 52.1248 41.769 52.1226H41.7448L41.7316 52.1506C41.6994 52.2151 41.2405 52.4966 41.1636 52.4818C41.1067 52.4813 41.0953 52.5051 41.0915 52.5276L41.0112 52.5043L40.9913 52.5429C40.9862 52.5866 40.8966 52.672 40.3808 52.7946L40.3825 52.7874L40.3239 52.779L40.2912 52.7814L40.2755 52.8094C40.2641 52.8289 40.1813 52.8617 40.1456 52.8756L40.0645 52.91L40.065 52.9197C40.0369 52.9221 39.9987 52.9438 39.9304 52.9893C39.8731 53.0254 39.7869 53.081 39.7542 53.0844L39.7275 53.0868L39.7224 53.1063C39.6995 53.1063 39.6626 53.1171 39.5853 53.1411L39.4295 53.1844L39.4193 53.2073C39.2669 53.1945 39.0508 53.2625 38.9162 53.3406L38.9137 53.3321L38.8615 53.311L38.8491 53.3101L38.8071 53.3029L38.7829 53.3313L38.7129 53.3397L38.6683 53.3409L38.6178 53.2684L38.5851 53.3261C38.5698 53.3486 38.4552 53.3787 38.3932 53.395C38.3932 53.395 38.2841 53.4311 38.2535 53.4408L38.2153 53.4336L38.2026 53.4111C38.1716 53.3958 38.1444 53.4207 38.1075 53.4663C38.0825 53.454 38.0493 53.4371 38.0493 53.4371L38.0167 53.4299L37.9835 53.4238L37.9721 53.4552C37.9657 53.4756 37.9229 53.4816 37.8919 53.4863L37.832 53.4959L37.8282 53.5116C37.7963 53.5031 37.7187 53.484 37.7187 53.484L37.4588 53.5409L37.3158 53.5301L37.1362 53.5178C36.7991 53.4436 36.3869 53.1124 36.3186 52.7116C36.308 52.6522 36.3046 52.5936 36.3046 52.5299C36.3046 52.4336 36.314 52.3342 36.3258 52.226L36.328 52.2069L36.3352 52.0753C36.3377 51.9878 36.3407 51.9021 36.3679 51.8036L36.4812 51.5264L36.5521 51.3714L36.6294 51.1188L36.7372 50.9087L36.7533 50.7524L36.7563 50.718L36.7831 50.608C36.7831 50.608 36.792 50.5745 36.8001 50.5435L36.8022 50.5711C36.8022 50.6003 36.8001 50.642 36.792 50.7035L36.7865 50.7405L36.8761 50.7554L36.8875 50.7299L36.949 50.6017L37.0628 50.4925L37.2853 50.2149L37.4283 49.995C37.5162 49.8503 37.6173 49.6868 37.7123 49.6274L37.7217 49.6214L37.7231 49.619L37.7417 49.6298L37.8126 49.6706L37.8232 49.6234C37.8321 49.5954 37.8351 49.5678 37.8351 49.5403C37.8351 49.4952 37.8266 49.4516 37.8181 49.4074L37.8151 49.3882C37.8364 49.418 37.8644 49.4502 37.9162 49.4472C38.035 49.44 38.4044 49.1008 38.5092 48.9637L38.55 48.9926L38.6035 49.0482L38.6362 49.0001L38.7075 48.9088C38.7576 48.8587 38.8149 48.7938 38.8459 48.7067C38.8684 48.7007 38.9605 48.6792 39.0059 48.6686C39.0187 48.697 39.0399 48.7208 39.0594 48.7356L39.0471 48.7751L39.1014 48.7912L39.1456 48.8008L39.1613 48.7495L39.1583 48.7503C39.185 48.7333 39.2003 48.7011 39.2062 48.6769L39.219 48.6386L39.2992 48.5644L39.3081 48.5572L39.3421 48.5692L39.3535 48.5704C39.3803 48.5776 39.4779 48.6838 39.4974 48.7249L39.539 48.8166L39.5679 48.7199C39.5811 48.6774 39.6044 48.6502 39.6409 48.6354C39.6965 48.6129 39.7734 48.6246 39.8167 48.6485L39.8379 48.6594L39.8629 48.6399C39.8935 48.616 40.1716 48.5324 40.2242 48.5278L40.4518 48.5423C40.5426 48.5559 40.6377 48.5695 40.7383 48.5507C40.8678 48.5265 40.9951 48.4509 41.1157 48.3771L41.3169 48.2642L41.5963 48.1725L41.8807 48.0757C42.0675 47.9866 42.2564 47.8906 42.4016 47.7845L42.7128 47.5162L42.8257 47.4457C42.9038 47.4015 42.9823 47.3557 43.0549 47.275C43.1432 47.174 43.1814 47.0449 43.2179 46.9197L43.2927 46.6977L43.3873 46.5436C43.4608 46.3424 43.4981 46.1433 43.4981 45.9425C43.4981 45.7858 43.4756 45.6224 43.4315 45.4555L43.3831 45.2968L43.2366 45.1057C43.1088 44.9538 42.9887 44.812 42.9887 44.5993C42.9887 44.567 42.9917 44.5326 42.9972 44.4965L43.0048 44.4528L42.7569 44.452L42.748 44.4809L42.7386 44.4639C42.6414 44.3786 42.638 44.3302 42.6325 44.2338L42.6193 44.1043L42.6456 44.0148L42.5522 43.9987L42.5361 44.0306L42.5289 44.0531L42.4673 44.0422L42.5009 44.117L42.4933 44.1194C42.4351 44.1218 42.343 44.0663 42.3316 44.0374L42.324 44.0179L42.2471 44.0043L42.2357 44.0361L42.2225 44.0599L42.2145 44.0575L42.1814 44.0527L42.178 44.0623C42.136 43.9918 42.1024 43.9379 42.0736 43.9193L42.0638 43.9169L42.0506 43.8922C42.0205 43.8731 41.9432 43.9431 41.9432 43.9431C41.6796 43.7453 41.6106 43.6423 41.6106 43.6423Z" fill="#2C71BC"/>
</g>
<defs>
<clipPath id="clip0_2857_106">
<rect width="50" height="47" fill="white" transform="translate(25 26.5)"/>
</clipPath>
</defs>
</svg>
