<svg width="58" height="58" viewBox="0 0 58 58" fill="none" xmlns="http://www.w3.org/2000/svg">
<path d="M55.1871 25.524C53.9614 24.7086 50.7403 24.3604 48.3985 24.9837C48.2722 22.6786 47.0696 20.7361 44.8693 19.0412L44.0547 18.5009L43.5119 19.3111C42.4448 20.9119 41.9952 23.0445 42.1546 24.983C42.2802 26.1774 42.7007 27.5201 43.5119 28.4943C40.464 30.2414 37.6548 29.8448 25.2133 29.8448H6.00431C5.94811 32.621 6.39968 37.9617 9.83633 42.3093C10.2158 42.7895 10.6324 43.254 11.0839 43.7016C13.8779 46.4667 18.0994 48.4941 24.412 48.5C34.0423 48.5085 42.2934 43.3645 47.3122 30.9262C48.9637 30.9529 53.3234 31.2189 55.4569 27.1444C55.5091 27.0758 55.9997 26.0637 55.9997 26.0637L55.1865 25.5234L55.1871 25.524ZM18.5403 22.985H13.1388V28.3231H18.5403V22.985ZM25.5188 22.985H20.1172V28.3231H25.5188V22.985ZM32.4972 22.985H27.0956V28.3231H32.4972V22.985ZM39.4756 22.985H34.074V28.3231H39.4756V22.985ZM11.5619 22.985H6.16034V28.3231H11.5619V22.985ZM18.5403 16.2428H13.1388V21.5809H18.5403V16.2428ZM25.5188 16.2428H20.1172V21.5809H25.5188V16.2428ZM32.4972 16.2428H27.0956V21.5809H32.4972V16.2428ZM32.4972 9.5H27.0956V14.8381H32.4972V9.5Z" fill="black"/>
</svg>
