<svg width="24" height="24" viewBox="0 0 24 24" fill="none" xmlns="http://www.w3.org/2000/svg">
<path d="M11.995 12.6776C12.3232 12.6776 12.6415 12.5483 12.9498 12.2698L22.886 3.5172C22.3489 3.15914 21.7322 3 20.8768 3H3.12308C2.26771 3 1.65105 3.15914 1.10401 3.5172L11.0401 12.2698C11.3584 12.5483 11.6767 12.6776 11.995 12.6776ZM0.258598 18.5358L7.61872 11.1856L0.238707 4.6809C0.129299 4.88976 0 5.39701 0 6.08329V17.0638C0 17.7004 0.099461 18.1579 0.258598 18.5358ZM2.8247 20.1471H21.1752C21.9013 20.1471 22.4682 19.968 22.8462 19.7094L15.2772 12.1405L13.8251 13.4335C13.2482 13.9408 12.6216 14.1994 11.995 14.1994C11.3784 14.1994 10.7517 13.9408 10.1749 13.4335L8.72273 12.1405L1.15375 19.7094C1.5317 19.968 2.08868 20.1471 2.8247 20.1471ZM23.7413 18.5358C23.8905 18.1579 24 17.7004 24 17.0638V6.08329C24 5.39701 23.8707 4.88976 23.7613 4.6809L16.3813 11.1856L23.7413 18.5358Z" fill="white" fill-opacity="1"/>
</svg>
