<svg width="101" height="25" viewBox="0 0 101 25" fill="none" xmlns="http://www.w3.org/2000/svg">
<path d="M2.42347 23.3036V14.3559C2.42347 13.5077 1.86224 12.921 0.91199 12.634C0.839711 12.6085 0.765306 12.5872 0.688776 12.5702C0.612245 12.5489 0.535714 12.5319 0.459184 12.5192C0.382653 12.5064 0.306122 12.4958 0.229592 12.4873C0.153061 12.4788 0.0765306 12.4724 0 12.4682C1.42857 12.4171 2.42347 11.671 2.42347 10.5868V1.63908C2.42347 0.59954 3.45026 -0.0063277 5.43367 4.98498e-05L7.64668 0.0064274V0.829131H7.21301C5.27423 0.822754 4.87883 1.14163 4.87883 2.46816V10.4529C4.87883 11.5434 3.76913 12.3661 2.26403 12.4682C3.76913 12.5766 4.87883 13.3993 4.87883 14.4835V22.4745C4.87883 23.8011 5.23597 24.1199 7.21301 24.1136H7.64668V24.9363H5.43367H5.39541C3.4375 24.9363 2.42347 24.3304 2.42347 23.3036ZM95.0064 24.9427L92.787 24.9363V24.1136H93.2207C95.2041 24.1136 95.5612 23.8011 95.5612 22.4745V14.4835C95.5612 13.3993 96.6709 12.5766 98.176 12.4682C96.6709 12.3661 95.5612 11.5434 95.5612 10.4529V2.46816C95.5612 1.13525 95.1658 0.822754 93.2207 0.829131H92.787V0.0064274L95.0064 4.98498e-05C96.9834 -0.0063277 98.0166 0.59954 98.0166 1.63908V10.5868C98.0166 11.671 99.0115 12.4171 100.44 12.4682C100.364 12.4724 100.287 12.4788 100.21 12.4873C100.13 12.4958 100.053 12.5064 99.9809 12.5192C99.9043 12.5319 99.8278 12.5489 99.7513 12.5702C99.6747 12.5872 99.6003 12.6063 99.5281 12.6276C98.5778 12.921 98.0166 13.5077 98.0166 14.3559V23.3036C98.0166 24.3304 97.0026 24.9427 95.0446 24.9427H95.0064ZM87.0153 19.9937V14.0243H81.065V19.9873H77.8699V4.94903H81.065V10.8228H87.0153V4.94903H90.2105V19.9873L87.0153 19.9937ZM71.5753 19.9937C67.0132 19.9937 64.7321 17.4958 64.7321 12.5V12.4299C64.7789 7.44265 67.0684 4.95115 71.6008 4.95541H76.8048V8.15056H70.963C70.7462 8.13781 70.523 8.15056 70.3125 8.18882C70.0957 8.22709 69.8852 8.29087 69.6875 8.38653C69.4898 8.47581 69.3048 8.59061 69.1327 8.72454C68.9605 8.86485 68.8138 9.01791 68.6798 9.1901C68.1781 9.88738 67.9273 10.9971 67.9273 12.5192V12.7041C67.9273 15.4337 68.9307 16.7985 70.9375 16.7985H76.7857V19.9937H71.5753ZM56.5179 19.9937C56.3265 20.0022 56.1331 19.9979 55.9375 19.9809C55.7462 19.9682 55.5548 19.9469 55.3635 19.9171C55.1722 19.8831 54.9851 19.8406 54.8023 19.7896C54.6152 19.7386 54.4303 19.6769 54.2474 19.6046C54.1071 19.5494 53.969 19.4856 53.8329 19.4133C53.6969 19.341 53.5651 19.2603 53.4375 19.171C53.3099 19.0817 53.1888 18.9881 53.074 18.8904C52.9592 18.7883 52.8486 18.6799 52.7423 18.5651C52.6488 18.4588 52.5595 18.3483 52.4745 18.2335C52.3895 18.1187 52.3108 17.9996 52.2385 17.8763C52.1705 17.7488 52.1067 17.6212 52.0472 17.4937C51.9919 17.3619 51.943 17.2279 51.9005 17.0919C51.8537 16.9558 51.8155 16.8177 51.7857 16.6773C51.7517 16.537 51.7241 16.3967 51.7028 16.2564C51.6815 16.1161 51.6645 15.9737 51.6518 15.8291C51.639 15.6846 51.6327 15.5421 51.6327 15.4018C51.6369 15.3253 51.639 15.2509 51.639 15.1786C51.6433 15.1021 51.6497 15.0277 51.6582 14.9554C51.6624 14.8831 51.6709 14.8108 51.6837 14.7386C51.6922 14.6663 51.7028 14.5919 51.7156 14.5154C51.7283 14.4431 51.7432 14.3687 51.7602 14.2921C51.7772 14.2156 51.7985 14.1412 51.824 14.0689C51.8452 13.9966 51.8707 13.9244 51.9005 13.8521C51.926 13.7798 51.9558 13.7075 51.9898 13.6353C52.0196 13.5715 52.0536 13.5077 52.0918 13.4439C52.1301 13.3759 52.1705 13.3121 52.213 13.2526C52.2513 13.1931 52.2959 13.1336 52.3469 13.074C52.3937 13.0145 52.4426 12.9592 52.4936 12.9082C52.5446 12.8529 52.5999 12.8019 52.6594 12.7552C52.719 12.7084 52.7806 12.6637 52.8444 12.6212C52.9082 12.583 52.9741 12.5468 53.0421 12.5128C53.1101 12.4788 53.1803 12.4512 53.2526 12.4299C53.1122 12.3661 52.9783 12.2896 52.8508 12.2003C52.7275 12.1153 52.6105 12.0175 52.5 11.9069C52.3937 11.7921 52.298 11.671 52.213 11.5434C52.128 11.4159 52.0578 11.2798 52.0026 11.1353C51.943 10.9737 51.8899 10.81 51.8431 10.6442C51.8006 10.4784 51.7645 10.3104 51.7347 10.1404C51.7049 9.97029 51.6837 9.80022 51.6709 9.63015C51.6582 9.45583 51.6539 9.28364 51.6582 9.11357C51.639 8.82658 51.6582 8.53959 51.7028 8.25898C51.7538 7.97199 51.8304 7.69775 51.9388 7.4299C52.0472 7.16842 52.1811 6.91331 52.3469 6.67735C52.5128 6.44775 52.7041 6.23092 52.9145 6.03959C53.1696 5.84401 53.4396 5.67182 53.7245 5.52301C54.0136 5.37845 54.3112 5.2594 54.6173 5.16587C54.9235 5.07233 55.2381 5.00855 55.5612 4.97454C55.8801 4.93627 56.199 4.92777 56.5179 4.94903H63.9987V8.15056H56.1288C56.0438 8.15056 55.9609 8.15906 55.8801 8.17607C55.7951 8.19308 55.7143 8.21859 55.6378 8.2526C55.5612 8.28661 55.4868 8.32913 55.4145 8.38015C55.3465 8.43117 55.2849 8.48857 55.2296 8.55235C55.1084 8.6799 55.0191 8.82658 54.9554 8.98602C54.8916 9.14546 54.8533 9.31765 54.8533 9.48985C54.8533 9.66204 54.8788 9.83423 54.9426 10C55 10.1595 55.0893 10.3062 55.2041 10.4401C55.2679 10.5039 55.3359 10.5613 55.4082 10.6123C55.4804 10.6633 55.557 10.7058 55.6378 10.7398C55.7185 10.7696 55.8036 10.793 55.8929 10.81C55.9779 10.827 56.065 10.8334 56.1543 10.8291H63.9987V14.0243H56.1288C56.0438 14.0243 55.9609 14.0328 55.8801 14.0498C55.7951 14.0711 55.7143 14.0987 55.6378 14.1327C55.5612 14.1667 55.4868 14.2071 55.4145 14.2539C55.3465 14.3049 55.2849 14.3623 55.2296 14.4261C55.1658 14.4941 55.1105 14.5664 55.0638 14.6429C55.017 14.7194 54.9766 14.8002 54.9426 14.8853C54.9086 14.9703 54.8852 15.0596 54.8725 15.1531C54.8554 15.2424 54.8491 15.3317 54.8533 15.421C54.8533 15.5103 54.8597 15.5995 54.8725 15.6888C54.8895 15.7781 54.9128 15.8631 54.9426 15.9439C54.9766 16.029 55.017 16.1097 55.0638 16.1863C55.1105 16.2586 55.1658 16.3266 55.2296 16.3904C55.2891 16.4584 55.3529 16.5158 55.4209 16.5626C55.4932 16.6136 55.5697 16.6561 55.6505 16.6901C55.727 16.7284 55.8078 16.756 55.8929 16.773C55.9779 16.7858 56.065 16.7921 56.1543 16.7921H63.9987V19.9937H56.5179ZM44.3304 19.9937V8.15056H40.7972V4.94903H50.8546V8.15056H47.5255V19.9937H44.3304ZM36.5179 19.9937V4.94903H39.713V19.9873L36.5179 19.9937ZM23.2972 19.9937V15.3572C23.2781 15.0447 23.2908 14.7322 23.3355 14.4261C23.3801 14.1199 23.4566 13.8138 23.5714 13.5268C23.6798 13.2335 23.8202 12.9592 23.9923 12.6978C24.1645 12.4363 24.3622 12.2003 24.5855 11.9835C24.8342 11.7794 25.0957 11.6008 25.3763 11.4478C25.6569 11.2947 25.9503 11.1671 26.25 11.0715C26.5561 10.9694 26.8686 10.9057 27.1811 10.861C27.5 10.8228 27.8189 10.81 28.1314 10.8291H31.1416C31.2266 10.8291 31.3116 10.8206 31.3967 10.8036C31.4817 10.7909 31.5646 10.7675 31.6454 10.7335C31.7262 10.6995 31.8006 10.6569 31.8686 10.6059C31.9409 10.5591 32.0068 10.5039 32.0663 10.4401C32.1258 10.3763 32.1811 10.3083 32.2321 10.236C32.2789 10.1637 32.3172 10.0872 32.3469 10.0064C32.381 9.92564 32.4065 9.84274 32.4235 9.7577C32.4362 9.67267 32.4426 9.58763 32.4426 9.5026C32.4426 9.41331 32.4341 9.32615 32.4171 9.24112C32.4043 9.15609 32.381 9.07318 32.3469 8.9924C32.3172 8.90736 32.2768 8.82871 32.2258 8.75643C32.179 8.68415 32.1258 8.61612 32.0663 8.55235C32.0111 8.48857 31.9473 8.43117 31.875 8.38015C31.807 8.33338 31.7347 8.29087 31.6582 8.2526C31.5816 8.21859 31.5009 8.19308 31.4158 8.17607C31.335 8.15906 31.2521 8.15056 31.1671 8.15056H23.2972V4.95541H30.7781C30.9651 4.95115 31.1522 4.95541 31.3393 4.96816C31.5264 4.98092 31.7113 5.00218 31.8941 5.03194C32.0812 5.0617 32.264 5.10209 32.4426 5.15311C32.6254 5.19988 32.804 5.25515 32.9783 5.31893C33.1229 5.3742 33.2632 5.43585 33.3992 5.50388C33.5353 5.5719 33.6671 5.64631 33.7946 5.72709C33.9222 5.81212 34.0434 5.90141 34.1582 5.99495C34.2772 6.09274 34.3899 6.19478 34.4962 6.30107C34.594 6.40311 34.6875 6.51153 34.7768 6.62633C34.8618 6.73687 34.9405 6.85379 35.0128 6.97709C35.085 7.09614 35.1509 7.21944 35.2105 7.34699C35.27 7.47879 35.321 7.61059 35.3635 7.7424C35.4103 7.8827 35.4507 8.02514 35.4847 8.16969C35.5187 8.31425 35.5485 8.45881 35.574 8.60337C35.5952 8.74792 35.6122 8.89461 35.625 9.04342C35.6335 9.18797 35.6378 9.33466 35.6378 9.48347C35.6378 9.62377 35.6314 9.76408 35.6186 9.90439C35.6101 10.0447 35.5952 10.1829 35.574 10.3189C35.5527 10.4592 35.5251 10.5974 35.4911 10.7335C35.4571 10.8695 35.4188 11.0056 35.3763 11.1416C35.3338 11.2734 35.2827 11.4052 35.2232 11.537C35.1679 11.6646 35.1042 11.79 35.0319 11.9133C34.9596 12.0324 34.8831 12.1493 34.8023 12.2641C34.7173 12.3789 34.628 12.4873 34.5344 12.5893C34.4281 12.7041 34.3155 12.8104 34.1964 12.9082C34.0816 13.0103 33.9605 13.1038 33.8329 13.1888C33.7096 13.2781 33.5799 13.3589 33.4439 13.4312C33.3078 13.5035 33.1675 13.5694 33.023 13.6289C32.8486 13.7012 32.6679 13.7628 32.4809 13.8138C32.298 13.8691 32.111 13.9137 31.9196 13.9478C31.7326 13.9775 31.5434 14.0009 31.352 14.0179C31.1607 14.0307 30.9694 14.0349 30.7781 14.0307H27.6977C27.6169 14.0307 27.5361 14.0392 27.4554 14.0562C27.3746 14.0732 27.2959 14.0987 27.2194 14.1327C27.1429 14.171 27.0727 14.2156 27.0089 14.2666C26.9452 14.3177 26.8856 14.375 26.8304 14.4388C26.7751 14.5069 26.7262 14.5791 26.6837 14.6557C26.6412 14.7322 26.605 14.8108 26.5753 14.8916C26.5455 14.9724 26.5242 15.0553 26.5115 15.1404C26.4945 15.2296 26.4881 15.3168 26.4923 15.4018V20.0001L23.2972 19.9937ZM15.0957 19.9937C14.9043 19.9979 14.713 19.9937 14.5217 19.9809C14.3261 19.9682 14.1327 19.9448 13.9413 19.9108C13.7543 19.8768 13.5672 19.8342 13.3801 19.7832C13.193 19.7322 13.0081 19.6727 12.8253 19.6046C12.6849 19.5451 12.5468 19.4792 12.4107 19.4069C12.2747 19.3347 12.1429 19.2539 12.0153 19.1646C11.8878 19.0796 11.7666 18.986 11.6518 18.884C11.537 18.7819 11.4264 18.6756 11.3202 18.5651C11.2266 18.4588 11.1373 18.3483 11.0523 18.2335C10.9673 18.1144 10.8907 17.9932 10.8227 17.8699C10.7504 17.7467 10.6866 17.6191 10.6314 17.4873C10.5719 17.3597 10.5208 17.2279 10.4783 17.0919C10.4358 16.9516 10.3975 16.8134 10.3635 16.6773C10.3295 16.537 10.3019 16.3946 10.2806 16.25C10.2594 16.1097 10.2423 15.9694 10.2296 15.8291C10.2211 15.6846 10.2168 15.54 10.2168 15.3955C10.2168 15.3232 10.219 15.2488 10.2232 15.1722C10.2275 15.1 10.2317 15.0277 10.236 14.9554C10.2445 14.8831 10.253 14.8087 10.2615 14.7322C10.27 14.6599 10.2806 14.5876 10.2934 14.5154C10.3061 14.4388 10.3231 14.3644 10.3444 14.2921C10.3614 14.2156 10.3805 14.1412 10.4018 14.0689C10.423 13.9924 10.4486 13.918 10.4783 13.8457C10.5081 13.7777 10.5378 13.7075 10.5676 13.6353C10.6016 13.5672 10.6356 13.5013 10.6696 13.4375C10.7079 13.3738 10.7483 13.3121 10.7908 13.2526C10.8333 13.1888 10.878 13.1293 10.9247 13.074C10.9715 13.0145 11.0204 12.9571 11.0714 12.9018C11.1224 12.8508 11.1777 12.7998 11.2372 12.7488C11.2968 12.702 11.3584 12.6595 11.4222 12.6212C11.486 12.5787 11.554 12.5426 11.6263 12.5128C11.6943 12.4788 11.7645 12.449 11.8367 12.4235C11.6964 12.364 11.5625 12.2896 11.4349 12.2003C11.3074 12.111 11.1905 12.0111 11.0842 11.9006C10.9736 11.79 10.878 11.671 10.7972 11.5434C10.7122 11.4116 10.6399 11.2756 10.5804 11.1353C10.5208 10.9737 10.4677 10.81 10.4209 10.6442C10.3784 10.4784 10.3423 10.3104 10.3125 10.1404C10.2827 9.97029 10.2615 9.79809 10.2487 9.62377C10.236 9.45371 10.2317 9.28151 10.236 9.10719C10.2232 8.82658 10.236 8.53959 10.2806 8.2526C10.3316 7.97199 10.4082 7.69775 10.5166 7.4299C10.625 7.16204 10.7653 6.91331 10.9247 6.67735C11.0906 6.44138 11.2819 6.22454 11.4923 6.03321C11.7474 5.83763 12.0196 5.66757 12.3087 5.52301C12.5935 5.37845 12.889 5.2594 13.1952 5.16587C13.5013 5.07233 13.8159 5.00643 14.139 4.96816C14.4579 4.93415 14.7768 4.92777 15.0957 4.94903H22.5765V8.15056H14.7066C14.6216 8.14631 14.5387 8.15481 14.4579 8.17607C14.3729 8.19308 14.2921 8.21859 14.2156 8.2526C14.139 8.28661 14.0646 8.32913 13.9923 8.38015C13.9243 8.42692 13.8627 8.48219 13.8074 8.54597C13.6862 8.67352 13.5969 8.8202 13.5332 8.97964C13.4694 9.14546 13.4311 9.31127 13.4311 9.48985C13.4311 9.66204 13.4566 9.83423 13.5204 9.99367C13.5778 10.1531 13.6671 10.3062 13.7819 10.4337C13.8414 10.4975 13.9094 10.5549 13.986 10.6059C14.0582 10.6569 14.1348 10.6995 14.2156 10.7335C14.2963 10.7675 14.3814 10.7909 14.4707 10.8036C14.5557 10.8206 14.6429 10.827 14.7321 10.8228H22.5765V14.0243H14.7066C14.6216 14.0243 14.5387 14.0328 14.4579 14.0498C14.3729 14.0668 14.2921 14.0923 14.2156 14.1263C14.139 14.1603 14.0646 14.2029 13.9923 14.2539C13.9243 14.3049 13.8627 14.3623 13.8074 14.4261C13.7436 14.4898 13.6884 14.56 13.6416 14.6365C13.5948 14.7173 13.5544 14.8002 13.5204 14.8853C13.4864 14.9703 13.463 15.0574 13.4503 15.1467C13.4332 15.236 13.4269 15.3274 13.4311 15.421C13.4269 15.5103 13.4332 15.5974 13.4503 15.6824C13.4673 15.7717 13.4906 15.8589 13.5204 15.9439C13.5544 16.0247 13.5948 16.1034 13.6416 16.1799C13.6884 16.2564 13.7436 16.3266 13.8074 16.3904C13.8669 16.4541 13.9307 16.5115 13.9987 16.5626C14.071 16.6136 14.1475 16.6561 14.2283 16.6901C14.3048 16.7241 14.3856 16.7496 14.4707 16.7666C14.5557 16.7836 14.6429 16.7921 14.7321 16.7921H22.5765V19.9873L15.0957 19.9937Z" fill="#0091D3"/>
</svg>
