<svg width="100" height="100" viewBox="0 0 100 100" fill="none" xmlns="http://www.w3.org/2000/svg">
<g clip-path="url(#clip0_2857_107)">
<path d="M2.39948 60.6969V51.8378C2.39948 50.998 1.8438 50.4171 0.90296 50.1329C0.831397 50.1077 0.757729 50.0866 0.681956 50.0698C0.606183 50.0487 0.53041 50.0318 0.454638 50.0193C0.378864 50.0066 0.303091 49.9961 0.227319 49.9877C0.151546 49.9793 0.0757729 49.9729 0 49.9688C1.41443 49.9182 2.39948 49.1795 2.39948 48.106V39.2469C2.39948 38.2176 3.4161 37.6178 5.37987 37.6241L7.57097 37.6304V38.4449H7.14159C5.22201 38.4386 4.83052 38.7544 4.83052 40.0677V47.9734C4.83052 49.0531 3.73181 49.8677 2.24161 49.9688C3.73181 50.0761 4.83052 50.8907 4.83052 51.9641V59.876C4.83052 61.1895 5.18413 61.5051 7.14159 61.4989H7.57097V62.3134H5.37987H5.34199C3.40347 62.3134 2.39948 61.7135 2.39948 60.6969ZM94.0657 62.3198L91.8683 62.3134V61.4989H92.2977C94.2615 61.4989 94.6151 61.1895 94.6151 59.876V51.9641C94.6151 50.8907 95.7138 50.0761 97.204 49.9688C95.7138 49.8677 94.6151 49.0531 94.6151 47.9734V40.0677C94.6151 38.748 94.2236 38.4386 92.2977 38.4449H91.8683V37.6304L94.0657 37.6241C96.0232 37.6178 97.0461 38.2176 97.0461 39.2469V48.106C97.0461 49.1795 98.0312 49.9182 99.4455 49.9688C99.3703 49.9729 99.2941 49.9793 99.2178 49.9877C99.1386 49.9961 99.0624 50.0066 98.991 50.0193C98.9152 50.0318 98.8394 50.0487 98.7637 50.0698C98.6878 50.0866 98.6142 50.1055 98.5427 50.1266C97.6018 50.4171 97.0461 50.998 97.0461 51.8378V60.6969C97.0461 61.7135 96.0422 62.3198 94.1036 62.3198H94.0657ZM86.1538 57.4198V51.5095H80.2624V57.4134H77.0989V42.5241H80.2624V48.3397H86.1538V42.5241H89.3173V57.4134L86.1538 57.4198ZM70.8666 57.4198C66.3497 57.4198 64.0912 54.9466 64.0912 50.0003V49.9309C64.1375 44.993 66.4044 42.5262 70.8919 42.5304H76.0444V45.6939H70.2604C70.0457 45.6813 69.8248 45.6939 69.6163 45.7318C69.4017 45.7697 69.1933 45.8328 68.9975 45.9275C68.8018 46.0159 68.6186 46.1296 68.4482 46.2622C68.2777 46.4011 68.1325 46.5526 67.9998 46.7231C67.5031 47.4135 67.2548 48.5122 67.2548 50.0193V50.2023C67.2548 52.9049 68.2482 54.2562 70.2351 54.2562H76.0254V57.4198H70.8666ZM55.9583 57.4198C55.7688 57.4282 55.5773 57.4239 55.3837 57.4071C55.1943 57.3945 55.0048 57.3734 54.8153 57.3439C54.6259 57.3103 54.4407 57.2682 54.2597 57.2177C54.0745 57.1672 53.8914 57.1061 53.7103 57.0345C53.5714 56.9799 53.4347 56.9167 53.2999 56.8451C53.1652 56.7735 53.0348 56.6936 52.9084 56.6052C52.7821 56.5168 52.6622 56.4241 52.5485 56.3274C52.4349 56.2263 52.3253 56.119 52.2201 56.0053C52.1275 55.9001 52.0391 55.7907 51.9549 55.677C51.8708 55.5633 51.7929 55.4454 51.7213 55.3233C51.654 55.1971 51.5908 55.0708 51.5319 54.9445C51.4771 54.814 51.4287 54.6814 51.3866 54.5467C51.3403 54.4119 51.3025 54.2752 51.273 54.1362C51.2393 53.9973 51.212 53.8584 51.1909 53.7195C51.1698 53.5806 51.153 53.4396 51.1404 53.2964C51.1277 53.1533 51.1215 53.0122 51.1215 52.8733C51.1256 52.7976 51.1277 52.7239 51.1277 52.6523C51.132 52.5766 51.1383 52.5029 51.1467 52.4314C51.1509 52.3598 51.1593 52.2882 51.172 52.2167C51.1804 52.1451 51.1909 52.0714 51.2036 51.9957C51.2161 51.9241 51.2309 51.8505 51.2477 51.7746C51.2646 51.6989 51.2856 51.6252 51.3109 51.5536C51.3319 51.482 51.3571 51.4106 51.3866 51.339C51.4119 51.2674 51.4414 51.1958 51.475 51.1243C51.5046 51.0612 51.5382 50.998 51.576 50.9348C51.614 50.8675 51.654 50.8043 51.696 50.7454C51.734 50.6865 51.7781 50.6276 51.8286 50.5686C51.875 50.5097 51.9234 50.4549 51.9739 50.4044C52.0244 50.3497 52.0791 50.2992 52.138 50.2529C52.197 50.2066 52.258 50.1623 52.3212 50.1203C52.3844 50.0824 52.4496 50.0466 52.5169 50.0129C52.5843 49.9793 52.6538 49.9519 52.7253 49.9309C52.5863 49.8677 52.4538 49.7919 52.3275 49.7035C52.2054 49.6194 52.0896 49.5225 51.9802 49.413C51.875 49.2994 51.7802 49.1795 51.696 49.0531C51.6119 48.9269 51.5424 48.7921 51.4877 48.6491C51.4287 48.4891 51.3761 48.327 51.3298 48.1628C51.2877 47.9987 51.252 47.8323 51.2225 47.664C51.193 47.4956 51.172 47.3272 51.1593 47.1588C51.1467 46.9862 51.1425 46.8157 51.1467 46.6474C51.1277 46.3632 51.1467 46.0791 51.1909 45.8012C51.2414 45.5171 51.3172 45.2456 51.4246 44.9804C51.5319 44.7215 51.6645 44.4689 51.8286 44.2353C51.9929 44.0079 52.1823 43.7933 52.3906 43.6038C52.6432 43.4102 52.9105 43.2397 53.1926 43.0923C53.4788 42.9492 53.7735 42.8314 54.0765 42.7387C54.3797 42.6461 54.6912 42.583 55.0111 42.5493C55.3268 42.5114 55.6426 42.503 55.9583 42.5241H63.365V45.6939H55.5731C55.4889 45.6939 55.4068 45.7023 55.3268 45.7191C55.2427 45.736 55.1627 45.7612 55.0869 45.7949C55.0111 45.8286 54.9374 45.8707 54.8658 45.9212C54.7985 45.9717 54.7375 46.0285 54.6828 46.0917C54.5628 46.218 54.4744 46.3632 54.4113 46.5211C54.3481 46.6789 54.3102 46.8494 54.3102 47.0199C54.3102 47.1904 54.3354 47.3609 54.3986 47.525C54.4554 47.6829 54.5439 47.8282 54.6575 47.9608C54.7207 48.0239 54.788 48.0808 54.8596 48.1313C54.9311 48.1817 55.0069 48.2238 55.0869 48.2575C55.1668 48.287 55.2511 48.3102 55.3395 48.327C55.4237 48.3438 55.5099 48.3502 55.5983 48.3459H63.365V51.5095H55.5731C55.4889 51.5095 55.4068 51.5179 55.3268 51.5347C55.2427 51.5558 55.1627 51.5831 55.0869 51.6168C55.0111 51.6505 54.9374 51.6905 54.8658 51.7368C54.7985 51.7873 54.7375 51.8441 54.6828 51.9073C54.6196 51.9746 54.5649 52.0462 54.5186 52.1219C54.4723 52.1977 54.4323 52.2777 54.3986 52.3619C54.365 52.4461 54.3418 52.5345 54.3292 52.6271C54.3123 52.7155 54.306 52.8039 54.3102 52.8923C54.3102 52.9808 54.3165 53.0691 54.3292 53.1575C54.346 53.2459 54.3691 53.3301 54.3986 53.4101C54.4323 53.4943 54.4723 53.5742 54.5186 53.6501C54.5649 53.7216 54.6196 53.789 54.6828 53.8521C54.7417 53.9195 54.8049 53.9763 54.8722 54.0226C54.9438 54.0731 55.0195 54.1152 55.0995 54.1489C55.1752 54.1868 55.2552 54.2141 55.3395 54.231C55.4237 54.2436 55.5099 54.2499 55.5983 54.2499H63.365V57.4198H55.9583ZM43.8915 57.4198V45.6939H40.3933V42.5241H50.3511V45.6939H47.055V57.4198H43.8915ZM36.1563 57.4198V42.5241H39.3198V57.4134L36.1563 57.4198ZM23.0665 57.4198V52.8292C23.0476 52.5198 23.0602 52.2104 23.1045 51.9073C23.1486 51.6041 23.2244 51.3011 23.338 51.0169C23.4453 50.7265 23.5844 50.4549 23.7548 50.1961C23.9252 49.9372 24.121 49.7035 24.3421 49.4889C24.5883 49.2868 24.8472 49.11 25.1251 48.9585C25.4029 48.8069 25.6934 48.6806 25.9901 48.5859C26.2932 48.4848 26.6026 48.4217 26.912 48.3775C27.2277 48.3397 27.5435 48.327 27.8529 48.3459H30.8333C30.9174 48.3459 31.0016 48.3375 31.0858 48.3207C31.17 48.3081 31.2521 48.2849 31.3321 48.2513C31.4121 48.2176 31.4857 48.1754 31.5531 48.1249C31.6247 48.0786 31.6899 48.0239 31.7488 47.9608C31.8077 47.8976 31.8625 47.8303 31.913 47.7587C31.9593 47.6871 31.9972 47.6114 32.0266 47.5314C32.0604 47.4514 32.0856 47.3693 32.1025 47.2851C32.115 47.2009 32.1214 47.1167 32.1214 47.0325C32.1214 46.9441 32.113 46.8578 32.0961 46.7736C32.0835 46.6895 32.0604 46.6074 32.0266 46.5274C31.9972 46.4432 31.9572 46.3653 31.9067 46.2938C31.8604 46.2222 31.8077 46.1548 31.7488 46.0917C31.6942 46.0285 31.631 45.9717 31.5594 45.9212C31.4921 45.8749 31.4205 45.8328 31.3448 45.7949C31.2689 45.7612 31.189 45.736 31.1048 45.7191C31.0248 45.7023 30.9427 45.6939 30.8585 45.6939H23.0665V42.5304H30.4734C30.6585 42.5262 30.8438 42.5304 31.029 42.543C31.2143 42.5556 31.3973 42.5767 31.5783 42.6061C31.7636 42.6356 31.9446 42.6756 32.1214 42.7261C32.3024 42.7724 32.4792 42.8271 32.6518 42.8903C32.7949 42.945 32.9339 43.0061 33.0685 43.0734C33.2033 43.1408 33.3338 43.2144 33.46 43.2944C33.5863 43.3786 33.7063 43.467 33.82 43.5596C33.9378 43.6564 34.0494 43.7575 34.1547 43.8627C34.2515 43.9637 34.3441 44.0711 34.4325 44.1847C34.5166 44.2942 34.5946 44.41 34.6661 44.532C34.7376 44.6499 34.8029 44.772 34.8619 44.8983C34.9208 45.0288 34.9713 45.1593 35.0134 45.2898C35.0597 45.4287 35.0997 45.5697 35.1334 45.7128C35.167 45.856 35.1965 45.9991 35.2218 46.1422C35.2428 46.2853 35.2596 46.4306 35.2723 46.5779C35.2807 46.721 35.2849 46.8663 35.2849 47.0136C35.2849 47.1525 35.2786 47.2914 35.2659 47.4304C35.2575 47.5693 35.2428 47.7061 35.2218 47.8408C35.2007 47.9797 35.1734 48.1165 35.1397 48.2513C35.106 48.3859 35.0681 48.5207 35.026 48.6553C34.984 48.7858 34.9334 48.9163 34.8745 49.0468C34.8197 49.1731 34.7566 49.2973 34.685 49.4194C34.6135 49.5373 34.5377 49.653 34.4577 49.7667C34.3736 49.8804 34.2851 49.9877 34.1925 50.0887C34.0872 50.2023 33.9757 50.3076 33.8578 50.4044C33.7442 50.5055 33.6243 50.5981 33.4979 50.6822C33.3758 50.7707 33.2474 50.8507 33.1128 50.9222C32.978 50.9938 32.8391 51.0591 32.696 51.118C32.5234 51.1896 32.3445 51.2506 32.1593 51.3011C31.9782 51.3558 31.7931 51.4 31.6036 51.4337C31.4184 51.4631 31.2311 51.4863 31.0416 51.5031C30.8522 51.5158 30.6628 51.52 30.4734 51.5158H27.4235C27.3435 51.5158 27.2635 51.5242 27.1836 51.5411C27.1036 51.5579 27.0256 51.5831 26.9499 51.6168C26.8742 51.6547 26.8047 51.6989 26.7415 51.7494C26.6784 51.8 26.6194 51.8567 26.5648 51.9199C26.51 51.9873 26.4616 52.0588 26.4195 52.1346C26.3774 52.2104 26.3416 52.2882 26.3122 52.3682C26.2827 52.4482 26.2616 52.5303 26.249 52.6145C26.2322 52.7028 26.2258 52.7892 26.23 52.8733V57.4261L23.0665 57.4198ZM14.9462 57.4198C14.7567 57.4239 14.5673 57.4198 14.3779 57.4071C14.1843 57.3945 13.9928 57.3714 13.8033 57.3377C13.6181 57.304 13.4329 57.2618 13.2476 57.2113C13.0624 57.1609 12.8793 57.1019 12.6983 57.0345C12.5593 56.9756 12.4226 56.9104 12.2878 56.8388C12.1532 56.7673 12.0227 56.6873 11.8963 56.5989C11.7701 56.5147 11.6501 56.422 11.5364 56.3211C11.4228 56.22 11.3133 56.1147 11.2081 56.0053C11.1154 55.9001 11.027 55.7907 10.9429 55.677C10.8587 55.5591 10.7829 55.4391 10.7155 55.317C10.644 55.195 10.5808 55.0687 10.5261 54.9382C10.4672 54.8118 10.4166 54.6814 10.3746 54.5467C10.3325 54.4078 10.2946 54.271 10.2609 54.1362C10.2272 53.9973 10.1999 53.8563 10.1788 53.7131C10.1578 53.5742 10.1409 53.4353 10.1283 53.2964C10.1199 53.1533 10.1156 53.0102 10.1156 52.8671C10.1156 52.7955 10.1178 52.7218 10.122 52.646C10.1262 52.5745 10.1304 52.5029 10.1347 52.4314C10.1431 52.3598 10.1515 52.2861 10.1599 52.2104C10.1683 52.1388 10.1788 52.0672 10.1915 51.9957C10.2041 51.9199 10.2209 51.8462 10.242 51.7746C10.2588 51.6989 10.2777 51.6252 10.2988 51.5536C10.3198 51.4779 10.3451 51.4042 10.3746 51.3326C10.4041 51.2653 10.4335 51.1958 10.463 51.1243C10.4966 51.0569 10.5303 50.9916 10.564 50.9285C10.6019 50.8654 10.6419 50.8043 10.684 50.7454C10.726 50.6822 10.7703 50.6233 10.8165 50.5686C10.8629 50.5097 10.9113 50.4528 10.9618 50.3981C11.0123 50.3476 11.067 50.2971 11.1259 50.2466C11.185 50.2003 11.2459 50.1582 11.3091 50.1203C11.3723 50.0782 11.4396 50.0424 11.5112 50.0129C11.5785 49.9793 11.648 49.9498 11.7195 49.9245C11.5806 49.8656 11.448 49.7919 11.3217 49.7035C11.1954 49.6151 11.0797 49.5162 10.9745 49.4068C10.865 49.2973 10.7703 49.1795 10.6903 49.0531C10.6061 48.9226 10.5346 48.788 10.4756 48.6491C10.4166 48.4891 10.3641 48.327 10.3177 48.1628C10.2756 47.9987 10.2399 47.8323 10.2104 47.664C10.1809 47.4956 10.1599 47.3251 10.1472 47.1525C10.1347 46.9841 10.1304 46.8136 10.1347 46.641C10.122 46.3632 10.1347 46.0791 10.1788 45.7949C10.2293 45.5171 10.3051 45.2456 10.4125 44.9804C10.5198 44.7152 10.6587 44.4689 10.8165 44.2353C10.9808 44.0016 11.1702 43.7869 11.3785 43.5975C11.6311 43.4039 11.9006 43.2355 12.1868 43.0923C12.4688 42.9492 12.7614 42.8314 13.0646 42.7387C13.3676 42.6461 13.6791 42.5809 13.999 42.543C14.3148 42.5093 14.6305 42.503 14.9462 42.5241H22.353V45.6939H14.561C14.4768 45.6897 14.3948 45.6981 14.3148 45.7191C14.2306 45.736 14.1506 45.7612 14.0749 45.7949C13.999 45.8286 13.9253 45.8707 13.8538 45.9212C13.7864 45.9675 13.7254 46.0222 13.6707 46.0854C13.5507 46.2117 13.4623 46.3569 13.3992 46.5148C13.336 46.6789 13.2981 46.8431 13.2981 47.0199C13.2981 47.1904 13.3234 47.3609 13.3865 47.5187C13.4434 47.6766 13.5318 47.8282 13.6454 47.9544C13.7044 48.0176 13.7717 48.0744 13.8475 48.1249C13.919 48.1754 13.9949 48.2176 14.0749 48.2513C14.1548 48.2849 14.239 48.3081 14.3274 48.3207C14.4116 48.3375 14.4979 48.3438 14.5862 48.3397H22.353V51.5095H14.561C14.4768 51.5095 14.3948 51.5179 14.3148 51.5347C14.2306 51.5515 14.1506 51.5768 14.0749 51.6105C13.999 51.6441 13.9253 51.6863 13.8538 51.7368C13.7864 51.7873 13.7254 51.8441 13.6707 51.9073C13.6075 51.9704 13.5529 52.0399 13.5065 52.1156C13.4602 52.1956 13.4202 52.2777 13.3865 52.3619C13.3529 52.4461 13.3297 52.5323 13.3171 52.6208C13.3002 52.7092 13.294 52.7997 13.2981 52.8923C13.294 52.9808 13.3002 53.067 13.3171 53.1512C13.334 53.2396 13.357 53.3259 13.3865 53.4101C13.4202 53.4901 13.4602 53.568 13.5065 53.6437C13.5529 53.7195 13.6075 53.789 13.6707 53.8521C13.7296 53.9152 13.7928 53.972 13.8601 54.0226C13.9317 54.0731 14.0074 54.1152 14.0874 54.1489C14.1632 54.1825 14.2432 54.2078 14.3274 54.2246C14.4116 54.2414 14.4979 54.2499 14.5862 54.2499H22.353V57.4134L14.9462 57.4198Z" fill="#0091D3"/>
</g>
<defs>
<clipPath id="clip0_2857_107">
<rect width="100" height="24.7525" fill="white" transform="translate(0 37.624)"/>
</clipPath>
</defs>
</svg>
