<svg width="255" height="255" viewBox="0 0 255 255" fill="none" xmlns="http://www.w3.org/2000/svg">
<path fill-rule="evenodd" clip-rule="evenodd" d="M86.7206 95.4082C68.9906 95.4082 54.6176 109.776 54.6176 127.5C54.6176 145.224 68.9906 159.592 86.7206 159.592H119.691V127.5V95.4082H86.7206ZM167.412 79.7959L168.279 79.7959C186.009 79.7959 200.382 65.4279 200.382 47.7041C200.382 29.9802 186.009 15.6122 168.279 15.6122H135.309V79.7959L167.412 79.7959ZM194.448 87.602C207.429 79.0765 216 64.3908 216 47.7041C216 21.3578 194.635 0 168.279 0H135.309H127.5H119.691H86.7206C60.3652 0 39 21.3578 39 47.7041C39 64.3908 47.5707 79.0765 60.5515 87.602C47.5707 96.1276 39 110.813 39 127.5C39 144.187 47.5707 158.872 60.5515 167.398C47.5707 175.923 39 190.609 39 207.296C39 233.697 60.6358 255 86.9363 255C113.476 255 135.309 233.503 135.309 206.862V175.204V167.398V162.796C143.785 170.505 155.05 175.204 167.412 175.204H168.279C194.635 175.204 216 153.846 216 127.5C216 110.813 207.429 96.1276 194.448 87.602ZM168.279 95.4082L167.412 95.4082C149.682 95.4082 135.309 109.776 135.309 127.5C135.309 145.224 149.682 159.592 167.412 159.592H168.279C186.009 159.592 200.382 145.224 200.382 127.5C200.382 109.776 186.009 95.4082 168.279 95.4082ZM54.6176 207.296C54.6176 189.572 68.9906 175.204 86.7206 175.204H119.691V206.862C119.691 224.771 104.961 239.388 86.9363 239.388C69.1515 239.388 54.6176 224.965 54.6176 207.296ZM119.691 79.7959H86.7206C68.9906 79.7959 54.6176 65.4279 54.6176 47.7041C54.6176 29.9802 68.9906 15.6122 86.7206 15.6122H119.691V79.7959Z" fill="white"/>
</svg>
