<svg width="58" height="58" viewBox="0 0 58 58" fill="none" xmlns="http://www.w3.org/2000/svg">
<g clip-path="url(#clip0_2721_1174)">
<path d="M30.7539 24.5859H27.0664L26.0703 23.3047V13.2578H31.6875V23.3047L30.7539 24.5859ZM25.7656 25.5234L24.625 29.0313L23.1016 29.582L13.543 26.4766L15.2812 21.1367L24.8359 24.2383L25.7656 25.5234ZM25.1094 30.4609L28.0938 32.6289L28.1445 34.2461L22.2422 42.3789L17.6953 39.0781L23.6055 30.9453L25.1094 30.4609ZM29.6875 32.6445L32.6758 30.4766L34.2305 30.9297L40.1367 39.0586L35.5937 42.3594L29.6875 34.2305V32.6445ZM33.2344 29.0898L32.0937 25.5781L33.0039 24.2383L42.5586 21.1367L44.2969 26.4766L34.7383 29.582L33.2344 29.0898Z" fill="black"/>
<path d="M29 4.55078C24.1644 4.55078 19.4374 5.9847 15.4168 8.67122C11.3961 11.3577 8.26238 15.1762 6.41188 19.6437C4.56137 24.1112 4.0772 29.0271 5.02058 33.7698C5.96396 38.5125 8.29252 42.8689 11.7118 46.2882C15.1311 49.7075 19.4875 52.0361 24.2302 52.9794C28.9729 53.9228 33.8888 53.4386 38.3563 51.5881C42.8238 49.7376 46.6423 46.6039 49.3288 42.5833C52.0153 38.5626 53.4492 33.8356 53.4492 29C53.4492 22.5157 50.8733 16.2969 46.2882 11.7118C41.7031 7.12667 35.4843 4.55078 29 4.55078ZM28.8672 48.1055C25.0429 48.1055 21.3045 46.9714 18.1247 44.8468C14.9449 42.7221 12.4666 39.7023 11.0031 36.1691C9.53963 32.6359 9.15671 28.7481 9.9028 24.9973C10.6489 21.2465 12.4904 17.8011 15.1946 15.097C17.8988 12.3928 21.3441 10.5512 25.0949 9.80513C28.8457 9.05905 32.7336 9.44196 36.2667 10.9055C39.7999 12.3689 42.8198 14.8473 44.9444 18.0271C47.0691 21.2068 48.2031 24.9452 48.2031 28.7695C48.2036 31.3091 47.7039 33.8239 46.7324 36.1703C45.7609 38.5167 44.3367 40.6487 42.5412 42.4446C40.7456 44.2405 38.6138 45.6652 36.2676 46.6371C33.9214 47.6091 31.4068 48.1094 28.8672 48.1094V48.1055Z" fill="black"/>
<path d="M28.0547 36.4184H29.5859V44.0395H28.0547V36.4184ZM36.3586 31.7152L36.8316 30.259L44.0797 32.6141L43.6066 34.0703L36.3586 31.7152ZM34.3727 22.384L33.134 21.484L37.6133 15.3184L38.8523 16.2184L34.3727 22.384ZM24.8406 21.4844L23.6016 22.3844L19.1223 16.2191L20.3609 15.3191L24.8406 21.4844ZM20.9512 30.2598L21.4242 31.716L14.1762 34.0711L13.7031 32.6148L20.9512 30.2598Z" fill="black"/>
</g>
<defs>
<clipPath id="clip0_2721_1174">
<rect width="50" height="50" fill="white" transform="translate(4 4)"/>
</clipPath>
</defs>
</svg>
