<svg width="58" height="58" viewBox="0 0 58 58" fill="none" xmlns="http://www.w3.org/2000/svg">
<path fill-rule="evenodd" clip-rule="evenodd" d="M22.4374 42.666C22.4374 42.666 20.5279 43.7775 23.7979 44.1526C27.76 44.605 29.7846 44.5399 34.1496 43.7147C34.1496 43.7147 35.2995 44.4341 36.9026 45.0572C27.1144 49.2512 14.7499 44.8142 22.4374 42.666Z" fill="black"/>
<path fill-rule="evenodd" clip-rule="evenodd" d="M21.2415 37.1924C21.2415 37.1924 19.0996 38.7784 22.372 39.1167C26.6048 39.5537 29.9462 39.5895 35.7315 38.476C35.7315 38.476 36.5299 39.287 37.787 39.7302C25.9544 43.1916 12.7753 40.0025 21.2415 37.1924Z" fill="black"/>
<path fill-rule="evenodd" clip-rule="evenodd" d="M31.3239 27.9066C33.737 30.6844 30.6911 33.1821 30.6911 33.1821C30.6911 33.1821 36.8147 30.0213 34.0031 26.0613C31.3761 22.3701 29.3621 20.5365 40.2655 14.2129C40.2655 14.2129 23.1498 18.4868 31.3239 27.9066Z" fill="#515151"/>
<path fill-rule="evenodd" clip-rule="evenodd" d="M44.269 46.7154C44.269 46.7154 45.6826 47.8808 42.7121 48.782C37.0636 50.493 19.1981 51.0092 14.236 48.8505C12.4534 48.074 15.7978 46.9978 16.85 46.7705C17.9471 46.5331 18.5736 46.5765 18.5736 46.5765C16.5898 45.1794 5.75121 49.3204 13.0688 50.508C33.0242 53.7429 49.4445 49.0509 44.269 46.7154Z" fill="black"/>
<path fill-rule="evenodd" clip-rule="evenodd" d="M23.3566 31.5209C23.3566 31.5209 14.2703 33.6799 20.139 34.4645C22.6178 34.7963 27.5562 34.7199 32.1596 34.3337C35.9206 34.018 39.6951 33.3428 39.6951 33.3428C39.6951 33.3428 38.3699 33.9114 37.4104 34.5662C28.1815 36.9937 10.3564 35.8632 15.4888 33.3813C19.8273 31.2823 23.3566 31.5209 23.3566 31.5209Z" fill="black"/>
<path fill-rule="evenodd" clip-rule="evenodd" d="M39.6572 40.6318C49.038 35.758 44.7002 31.0738 41.6727 31.7047C40.9323 31.8593 40.6002 31.9931 40.6002 31.9931C40.6002 31.9931 40.876 31.5609 41.4012 31.375C47.3908 29.2701 51.996 37.5853 39.4697 40.8785C39.4697 40.8785 39.6137 40.748 39.6572 40.6318Z" fill="black"/>
<path fill-rule="evenodd" clip-rule="evenodd" d="M34.0031 4C34.0031 4 39.1972 9.19733 29.0751 17.1871C20.9578 23.5988 27.2243 27.2532 29.0722 31.4306C24.3336 27.1554 20.8579 23.3914 23.1892 19.8887C26.6127 14.7479 36.0983 12.2547 34.0031 4Z" fill="#515151"/>
<path fill-rule="evenodd" clip-rule="evenodd" d="M24.279 53.8436C33.2815 54.4192 47.1097 53.5233 47.437 49.2627C47.437 49.2627 46.8079 50.8778 39.9962 52.1593C32.3117 53.6062 22.8315 53.4378 17.2109 52.5096C17.2109 52.5096 18.3624 53.4628 24.279 53.8436Z" fill="black"/>
</svg>
