<svg width="58" height="58" viewBox="0 0 58 58" fill="none" xmlns="http://www.w3.org/2000/svg">
<g clip-path="url(#clip0_2721_1180)">
<path d="M52.4883 28.617C52.4883 25.6123 50.2118 23.0838 47.1555 22.3623L54.0004 4.04395H20.0786L26.9391 22.4201C23.979 23.1998 21.7969 25.6842 21.7969 28.6322C21.7969 30.7986 22.9915 32.7197 24.8059 33.9041C24.0903 34.8287 23.2618 35.6814 22.3231 36.49C20.5563 37.9932 18.5969 39.1482 16.4805 39.9143C14.5704 38.7439 13.743 36.6779 14.4907 34.8283C17.4036 34.0197 19.5219 31.5494 19.5219 28.6459C19.5219 25.0783 16.3219 22.1881 12.4047 22.1881C8.47271 22.1881 5.27466 25.092 5.27466 28.6607C5.27466 30.4236 6.06958 32.0408 7.3438 33.1959C7.23208 33.399 7.12114 33.6002 7.00943 33.817C5.94302 35.8115 4.73286 38.065 4.27036 40.5936C3.34732 45.6486 4.85943 49.7092 8.50474 52.0057C10.5586 53.292 12.82 53.942 15.2555 53.942C19.4407 53.942 23.6918 52.0346 27.7981 50.185C30.7278 48.8713 33.752 47.4979 36.729 46.8342C37.8278 46.5885 38.9735 46.4436 40.1836 46.285C42.634 45.9674 45.1657 45.635 47.4422 44.4357C50.1004 43.035 51.9149 40.6939 52.4411 38.0072C52.8376 35.9408 52.4411 33.8611 51.4215 32.0408C52.118 31.0351 52.4905 29.8403 52.4883 28.617ZM49.3848 28.617C49.3848 30.6248 47.5856 32.2576 45.3731 32.2576C43.1606 32.2576 41.3614 30.6248 41.3614 28.617C41.3614 27.9666 41.5524 27.3459 41.8864 26.8115C42.0133 26.6084 42.1735 26.4072 42.3317 26.2334C42.4994 26.0546 42.6863 25.8949 42.8891 25.7572L42.9059 25.742C43.0325 25.6553 43.1758 25.5682 43.3192 25.4826C43.3192 25.4826 43.3348 25.4826 43.3348 25.4674C43.3985 25.4385 43.4626 25.3955 43.527 25.3666C43.5422 25.3666 43.5575 25.3514 43.5739 25.3514C43.6383 25.324 43.7176 25.2951 43.7965 25.2658C43.8719 25.2395 43.9463 25.2106 44.0196 25.1791C44.0352 25.1791 44.0516 25.1635 44.0668 25.1635C44.1309 25.1502 44.195 25.1209 44.2579 25.1072C44.2747 25.1072 44.3067 25.092 44.3219 25.092C44.4012 25.0783 44.4653 25.0631 44.5446 25.049H44.5614L44.7997 25.0049C44.8161 25.0049 44.8465 25.0049 44.8633 24.9912C44.9274 24.9912 44.9903 24.976 45.0543 24.976H45.1336C45.2129 24.976 45.2938 24.9623 45.3883 24.9623H45.5958C45.6583 24.9623 45.7075 24.9623 45.77 24.976H45.802C45.9301 24.9916 46.0567 25.0049 46.1848 25.0342C47.9993 25.3803 49.3848 26.8545 49.3848 28.617ZM24.5188 6.93262H49.5586L43.8122 22.3182C43.5739 22.3623 43.3344 22.4338 43.0965 22.5057L37.0481 11.3104L30.9825 22.4334C30.743 22.3619 30.4883 22.3178 30.2348 22.2748L24.5188 6.93262ZM35.9004 27.3592C35.5985 26.001 34.834 24.7881 33.752 23.8924L37.0481 17.8545L40.3743 24.0221C39.3872 24.9178 38.6711 26.0592 38.3844 27.3592H35.9004ZM27.9262 25.0779C28.0055 25.0623 28.0696 25.049 28.1489 25.0338H28.1961C28.2602 25.0201 28.3247 25.0201 28.3872 25.0045H28.4512C28.5153 25.0045 28.5626 24.9908 28.6266 24.9908H29.2477C29.3102 24.9908 29.359 25.0045 29.4063 25.0045C29.4383 25.0045 29.4536 25.0045 29.4856 25.0201C29.5497 25.0338 29.5969 25.0338 29.6614 25.049C29.6762 25.049 29.693 25.049 29.7251 25.0627C29.8047 25.0779 29.884 25.0916 29.9477 25.1068H29.9633C30.0274 25.1205 30.0915 25.1342 30.154 25.1635C30.1708 25.1635 30.186 25.1787 30.218 25.1787C30.2653 25.1924 30.3293 25.2076 30.3766 25.2365C30.3934 25.2365 30.4086 25.2502 30.4254 25.2502C30.4879 25.2795 30.5524 25.2947 30.6165 25.3236H30.6317C30.711 25.351 30.7751 25.3799 30.8391 25.4244H30.8547C30.9184 25.4533 30.9825 25.4959 31.0465 25.5248C31.0622 25.5248 31.0622 25.5404 31.077 25.5404C31.1411 25.5678 31.1887 25.6119 31.2528 25.6408L31.2696 25.6545C31.4602 25.7846 31.6356 25.9295 31.8094 26.0744L31.8262 26.0881C31.9852 26.2467 32.1438 26.4205 32.2719 26.6084C32.6856 27.1865 32.925 27.8658 32.925 28.6025C32.925 30.6107 31.1258 32.242 28.9133 32.242C26.7008 32.242 24.9016 30.6107 24.9016 28.6025C24.8852 26.9119 26.1747 25.4822 27.9262 25.0779ZM12.2614 24.9756C14.4743 24.9756 16.2731 26.6084 16.2731 28.6162C16.2731 30.6244 14.4743 32.2568 12.2614 32.2568C10.0489 32.2568 8.24966 30.6244 8.24966 28.6162C8.24966 26.6084 10.0489 24.9756 12.2614 24.9756ZM49.2887 37.5018C48.9391 39.3494 47.6801 40.9686 45.834 41.9357C44.0989 42.8467 41.9657 43.135 39.7211 43.4236C38.4961 43.5822 37.2067 43.7561 35.9645 44.0307C32.6536 44.7678 29.4704 46.2127 26.3821 47.5982C22.4344 49.376 18.7083 51.0514 15.2555 51.0514C13.4563 51.0514 11.8481 50.5893 10.3208 49.6217C6.8188 47.426 6.99263 43.3092 7.40786 41.0553C7.78911 38.9451 8.85591 36.9662 9.87505 35.074C9.93755 34.958 9.98638 34.8572 10.0489 34.7412C10.4001 34.8572 10.7661 34.9443 11.1477 35.0021C10.5434 38.0646 12.2614 41.2279 15.6047 42.7889L16.2102 43.0771L16.8622 42.8604C19.6485 41.9646 22.227 40.5061 24.5036 38.5557C25.793 37.4572 26.8918 36.2732 27.8149 34.9869C28.1809 35.0451 28.5473 35.0604 28.9133 35.0604C32.2247 35.0604 35.0094 32.9939 35.8059 30.2201H38.4793C39.2758 33.008 42.0618 35.06 45.3731 35.06C46.6946 35.06 47.92 34.7279 48.9696 34.1646C49.3848 35.2479 49.5114 36.374 49.2887 37.5018Z" fill="black"/>
</g>
<defs>
<clipPath id="clip0_2721_1180">
<rect width="50" height="50" fill="white" transform="translate(4 4)"/>
</clipPath>
</defs>
</svg>
