<svg width="350" height="350" viewBox="0 0 350 350" fill="none" xmlns="http://www.w3.org/2000/svg">
<path fill-rule="evenodd" clip-rule="evenodd" d="M350 175C350 211.451 271.65 241 175 241C78.3502 241 0 211.451 0 175C0 138.549 78.3502 109 175 109C249.199 109 312.613 126.416 338.07 151H273.278C254.252 135.505 217.374 125 175 125C113.144 125 63 147.386 63 175C63 202.614 113.144 225 175 225C236.856 225 287 202.614 287 175C287 172.277 286.512 169.605 285.574 167H348.727C349.568 169.622 350 172.292 350 175Z" fill="black"/>
<path d="M175 191C175 177.745 185.745 167 199 167H287V191H175V191Z" fill="black"/>
</svg>
