<svg width="350" height="350" viewBox="0 0 350 350" fill="none" xmlns="http://www.w3.org/2000/svg">
<path d="M175 191C175 177.745 185.745 167 199 167H275V191H175V191Z" fill="black"/>
<path fill-rule="evenodd" clip-rule="evenodd" d="M350 175C350 211.451 271.65 241 175 241C78.3502 241 0 211.451 0 175C0 138.549 78.3502 109 175 109C249.199 109 312.613 126.416 338.07 151H262.748C245.76 135.505 212.834 125 175 125C119.772 125 75 147.386 75 175C75 202.614 119.772 225 175 225C230.228 225 275 202.614 275 175C275 172.277 274.565 169.605 273.727 167H348.727C349.568 169.622 350 172.292 350 175Z" fill="black"/>
</svg>
