<svg width="38" height="38" viewBox="0 0 38 38" fill="none" xmlns="http://www.w3.org/2000/svg">
<g clip-path="url(#clip0_2778_22)">
<path d="M32.1992 5.53591C29.359 2.69572 26.3251 4.53399 24.4264 6.43271L6.49003 24.3696C4.59133 26.2681 2.604 29.1528 5.59325 32.1416C8.58251 35.1315 11.4672 33.1438 13.3655 31.2451L31.3022 13.3086C33.2009 11.4097 35.0392 8.37571 32.1992 5.53591Z" fill="white"/>
<path d="M15.0632 4.80102L18.8612 8.59884L22.7271 4.73294C22.9895 4.46987 23.256 4.22574 23.5241 3.9955C23.1193 1.95298 21.9538 0.106445 18.8594 0.106445C15.7591 0.106445 14.5951 1.96022 14.1924 4.00717C14.4819 4.25755 14.7707 4.50854 15.0632 4.80102Z" fill="white"/>
<path d="M22.7253 33.012L18.8618 29.1484L15.0658 32.944C14.7776 33.2324 14.4907 33.4959 14.2051 33.7434C14.6404 35.8256 15.8723 37.7328 18.8602 37.7328C21.8559 37.7328 23.0862 35.8154 23.5187 33.7265C23.253 33.4979 22.9871 33.2737 22.7253 33.012Z" fill="white"/>
<path d="M13.4522 14.0078H6.13018C3.44549 14.0078 0 14.8536 0 18.8698C0 21.8665 1.91804 23.097 4.00729 23.5293C4.25465 23.2437 13.4522 14.0078 13.4522 14.0078Z" fill="white"/>
<path d="M33.7269 14.2031C33.4952 14.4726 24.2783 23.7319 24.2783 23.7319H31.4964C34.1813 23.7319 37.6266 23.0975 37.6266 18.8701C37.6266 15.7703 35.7734 14.6056 33.7269 14.2031Z" fill="white"/>
<path d="M15.8518 11.6045L17.1599 10.2964L13.3643 6.50027C11.4654 4.60173 8.58106 2.6142 5.59181 5.60347C3.39983 7.79547 3.88669 9.92877 5.04935 11.6607C5.40347 11.6346 15.8518 11.6045 15.8518 11.6045Z" fill="white"/>
<path d="M21.8701 26.1352L20.5586 27.4468L24.4248 31.3127C26.3235 33.2116 29.3575 35.0494 32.1973 32.2096C34.3164 30.0904 33.8301 27.8645 32.6586 26.0815C32.2815 26.1087 21.8701 26.1352 21.8701 26.1352Z" fill="white"/>
</g>
<defs>
<clipPath id="clip0_2778_22">
<rect width="38" height="38" fill="white"/>
</clipPath>
</defs>
</svg>
