<svg width="58" height="58" viewBox="0 0 58 58" fill="none" xmlns="http://www.w3.org/2000/svg">
<path d="M27.3627 4.01346C27.2551 4.02323 26.913 4.05744 26.6051 4.08187C19.5034 4.72205 12.8514 8.55336 8.63832 14.442C6.29228 17.7162 4.79179 21.4303 4.22483 25.3642C4.02444 26.7374 4 27.143 4 29.0049C4 30.8668 4.02444 31.2724 4.22483 32.6456C5.58358 42.0333 12.2649 49.9207 21.3265 52.843C22.9492 53.3659 24.6598 53.7227 26.6051 53.9377C27.3627 54.0208 30.6373 54.0208 31.3949 53.9377C34.7527 53.5663 37.5973 52.7355 40.4027 51.3037C40.8328 51.0838 40.9159 51.0251 40.8573 50.9763C40.8182 50.9469 38.9853 48.4888 36.7859 45.5176L32.7879 40.1176L27.7781 32.7043C25.0215 28.6286 22.7537 25.2958 22.7341 25.2958C22.7146 25.2909 22.695 28.5846 22.6852 32.6065C22.6706 39.6485 22.6657 39.9319 22.5777 40.0981C22.4506 40.3375 22.3529 40.4353 22.1476 40.5428C21.9912 40.621 21.8544 40.6356 21.1163 40.6356H20.2708L20.0459 40.4939C19.8993 40.4011 19.7918 40.2789 19.7185 40.1372L19.6158 39.9173L19.6256 30.1191L19.6403 20.316L19.7918 20.1255C19.87 20.0228 20.0362 19.8909 20.1535 19.8274C20.3539 19.7296 20.4321 19.7198 21.2776 19.7198C22.2747 19.7198 22.4409 19.7589 22.6999 20.0424C22.7732 20.1206 25.4858 24.206 28.7312 29.1271C31.9765 34.0481 36.4145 40.7676 38.5943 44.0662L42.5533 50.0624L42.7537 49.9305C44.5279 48.7772 46.4047 47.1352 47.8905 45.4248C51.0528 41.7938 53.0909 37.3663 53.7752 32.6456C53.9756 31.2724 54 30.8668 54 29.0049C54 27.143 53.9756 26.7374 53.7752 25.3642C52.4164 15.9765 45.7351 8.0891 36.6735 5.16676C35.0753 4.64875 33.3744 4.29201 31.4682 4.07698C30.999 4.02812 27.7683 3.97436 27.3627 4.01346ZM37.5973 19.1334C37.8319 19.2507 38.0225 19.4755 38.0909 19.7101C38.13 19.8371 38.1398 22.5542 38.13 28.6775L38.1153 37.4641L36.566 35.089L35.0117 32.714V26.3269C35.0117 22.1975 35.0313 19.8762 35.0606 19.7638C35.1388 19.4902 35.3099 19.2751 35.5445 19.1481C35.7449 19.0455 35.8182 19.0357 36.5855 19.0357C37.3089 19.0357 37.436 19.0455 37.5973 19.1334Z" fill="black"/>
</svg>
