<svg width="58" height="58" viewBox="0 0 58 58" fill="none" xmlns="http://www.w3.org/2000/svg">
<path d="M28.5002 33.3676C30.9122 33.3676 32.8676 31.4122 32.8676 29.0002C32.8676 26.5882 30.9122 24.6328 28.5002 24.6328C26.0882 24.6328 24.1328 26.5882 24.1328 29.0002C24.1328 31.4122 26.0882 33.3676 28.5002 33.3676Z" fill="black"/>
<path d="M28.5002 37.9484C41.4429 37.9484 51.935 33.9423 51.935 29.0006C51.935 24.0588 41.4429 20.0527 28.5002 20.0527C15.5575 20.0527 5.06543 24.0588 5.06543 29.0006C5.06543 33.9423 15.5575 37.9484 28.5002 37.9484Z" stroke="black"/>
<path d="M20.7515 33.4744C27.2229 44.6831 35.9383 51.7665 40.218 49.2956C44.4976 46.8247 42.721 35.7352 36.2496 24.5266C29.7783 13.3179 21.0629 6.23448 16.7832 8.70536C12.5035 11.1762 14.2802 22.2657 20.7515 33.4744Z" stroke="black"/>
<path d="M20.7513 24.527C14.28 35.7357 12.5033 46.8251 16.783 49.296C21.0626 51.7669 29.7781 44.6835 36.2494 33.4748C42.7207 22.2661 44.4974 11.1766 40.2178 8.70577C35.9381 6.2349 27.2227 13.3183 20.7513 24.527Z" stroke="black"/>
</svg>
