<svg width="58" height="58" viewBox="0 0 58 58" fill="none" xmlns="http://www.w3.org/2000/svg">
<path fill-rule="evenodd" clip-rule="evenodd" d="M29 14C22.3333 14 18.1667 17.3333 16.5 24C19 20.6667 21.9167 19.4167 25.25 20.25C27.1519 20.725 28.5111 22.1056 30.0157 23.6324C32.4667 26.1204 35.3037 29 41.5 29C48.1667 29 52.3333 25.6667 54 19C51.5 22.3333 48.5833 23.5833 45.25 22.75C43.3481 22.275 41.9889 20.8944 40.4843 19.3676C38.0333 16.8796 35.1963 14 29 14ZM16.5 29C9.83333 29 5.66667 32.3333 4 39C6.5 35.6667 9.41667 34.4167 12.75 35.25C14.6519 35.7259 16.0111 37.1056 17.5157 38.6324C19.9667 41.1204 22.8037 44 29 44C35.6667 44 39.8333 40.6667 41.5 34C39 37.3333 36.0833 38.5833 32.75 37.75C30.8481 37.275 29.4889 35.8944 27.9843 34.3676C25.5333 31.8796 22.6963 29 16.5 29Z" fill="black"/>
</svg>
