<svg width="58" height="58" viewBox="0 0 58 58" fill="none" xmlns="http://www.w3.org/2000/svg">
<path d="M49.1172 4H8.88281C6.18611 4 4 6.18611 4 8.88281V49.1172C4 51.8139 6.18611 54 8.88281 54H49.1172C51.8139 54 54 51.8139 54 49.1172V8.88281C54 6.18611 51.8139 4 49.1172 4Z" fill="black"/>
<path fill-rule="evenodd" clip-rule="evenodd" d="M34.9511 43.7875V48.6763C35.7458 49.0837 36.6857 49.3892 37.7709 49.5929C38.8561 49.7966 39.9997 49.8984 41.2021 49.8984C42.3738 49.8984 43.4869 49.7864 44.5415 49.5623C45.5961 49.3383 46.5208 48.969 47.3155 48.4547C48.1103 47.9404 48.7395 47.2682 49.203 46.4381C49.6666 45.608 49.8984 44.5819 49.8984 43.3598C49.8984 42.4736 49.766 41.6971 49.5011 41.03C49.2361 40.3629 48.8541 39.7696 48.3548 39.2502C47.8556 38.7308 47.2569 38.2647 46.559 37.8522C45.861 37.4397 45.0739 37.0502 44.1977 36.6836C43.5558 36.4187 42.9801 36.1616 42.4706 35.9121C41.9611 35.6625 41.5281 35.4079 41.1715 35.1482C40.8148 34.8885 40.5397 34.6135 40.3462 34.3232C40.1526 34.0329 40.0558 33.7045 40.0558 33.3378C40.0558 33.0018 40.1424 32.6987 40.3156 32.4288C40.4889 32.1589 40.7334 31.9272 41.0492 31.7337C41.3651 31.5402 41.7522 31.3899 42.2107 31.283C42.6693 31.1761 43.1787 31.1227 43.7392 31.1227C44.1467 31.1227 44.5771 31.1532 45.0306 31.2143C45.484 31.2754 45.9399 31.3696 46.3985 31.4969C46.857 31.6242 47.3027 31.7847 47.7358 31.9781C48.1688 32.1717 48.5688 32.3957 48.9355 32.6504V28.0824C48.1918 27.7973 47.3792 27.5859 46.4979 27.4484C45.6165 27.3109 44.6052 27.2422 43.4641 27.2422C42.3024 27.2422 41.2021 27.367 40.1628 27.6165C39.1235 27.866 38.2091 28.2556 37.4193 28.7852C36.6297 29.3148 36.0057 29.9895 35.5472 30.8095C35.0887 31.6293 34.8594 32.6096 34.8594 33.7503C34.8594 35.2067 35.2797 36.4493 36.1203 37.478C36.9608 38.5066 38.237 39.3774 39.9488 40.0904C40.6213 40.3654 41.2479 40.6353 41.8287 40.9001C42.4095 41.1649 42.9113 41.4399 43.3341 41.7251C43.7569 42.0103 44.0906 42.3209 44.3353 42.657C44.5798 42.9931 44.7021 43.375 44.7021 43.8028C44.7021 44.1186 44.6256 44.4113 44.4728 44.6812C44.3199 44.9512 44.0881 45.1854 43.7773 45.384C43.4666 45.5826 43.0794 45.7379 42.6158 45.8499C42.1521 45.962 41.6097 46.018 40.9881 46.018C39.9284 46.018 38.879 45.8321 37.8396 45.4604C36.8004 45.0887 35.8375 44.5311 34.9511 43.7875ZM26.7324 31.7424H33.0039V27.7305H15.5234V31.7424H21.7643V49.6055H26.7324V31.7424Z" fill="white"/>
</svg>
